<?xml version="1.0" encoding="utf-8" standalone="no"?>
<!DOCTYPE svg PUBLIC "-//W3C//DTD SVG 1.1//EN"
  "http://www.w3.org/Graphics/SVG/1.1/DTD/svg11.dtd">
<svg height="720pt" version="1.1" viewBox="0 0 1152 720" width="1152pt" xmlns="http://www.w3.org/2000/svg" xmlns:xlink="http://www.w3.org/1999/xlink">
 <metadata>
  <rdf:RDF xmlns:cc="http://creativecommons.org/ns#" xmlns:dc="http://purl.org/dc/elements/1.1/" xmlns:rdf="http://www.w3.org/1999/02/22-rdf-syntax-ns#">
   <cc:Work>
    <dc:type rdf:resource="http://purl.org/dc/dcmitype/StillImage"/>
    <dc:date>2023-05-11T10:27:58.595397</dc:date>
    <dc:format>image/svg+xml</dc:format>
    <dc:creator>
     <cc:Agent>
      <dc:title>Matplotlib v3.4.3, https://matplotlib.org/</dc:title>
     </cc:Agent>
    </dc:creator>
   </cc:Work>
  </rdf:RDF>
 </metadata>
 <defs>
  <style type="text/css">*{stroke-linecap:butt;stroke-linejoin:round;}</style>
 </defs>
 <g id="figure_1">
  <g id="patch_1">
   <path d="M 0 720 
L 1152 720 
L 1152 0 
L 0 0 
z
" style="fill:#ffffff;"/>
  </g>
  <g id="axes_1">
   <g id="patch_2">
    <path d="M 144 640.8 
L 1036.8 640.8 
L 1036.8 86.4 
L 144 86.4 
z
" style="fill:#ffffff;"/>
   </g>
   <g id="PathCollection_1">
    <defs>
     <path d="M 0 1.936492 
C 0.513564 1.936492 1.006162 1.732451 1.369306 1.369306 
C 1.732451 1.006162 1.936492 0.513564 1.936492 0 
C 1.936492 -0.513564 1.732451 -1.006162 1.369306 -1.369306 
C 1.006162 -1.732451 0.513564 -1.936492 0 -1.936492 
C -0.513564 -1.936492 -1.006162 -1.732451 -1.369306 -1.369306 
C -1.732451 -1.006162 -1.936492 -0.513564 -1.936492 0 
C -1.936492 0.513564 -1.732451 1.006162 -1.369306 1.369306 
C -1.006162 1.732451 -0.513564 1.936492 0 1.936492 
z
" id="mf8f8345ec4" style="stroke:#0000ff;"/>
    </defs>
    <g clip-path="url(#pdf1e84bea2)">
     <use style="fill:#0000ff;stroke:#0000ff;" x="144" xlink:href="#mf8f8345ec4" y="640.8"/>
     <use style="fill:#0000ff;stroke:#0000ff;" x="162.074538" xlink:href="#mf8f8345ec4" y="538.812218"/>
     <use style="fill:#0000ff;stroke:#0000ff;" x="180.149075" xlink:href="#mf8f8345ec4" y="458.071891"/>
     <use style="fill:#0000ff;stroke:#0000ff;" x="198.223613" xlink:href="#mf8f8345ec4" y="390.080037"/>
     <use style="fill:#0000ff;stroke:#0000ff;" x="216.29815" xlink:href="#mf8f8345ec4" y="339.086146"/>
     <use style="fill:#0000ff;stroke:#0000ff;" x="234.372688" xlink:href="#mf8f8345ec4" y="296.591237"/>
     <use style="fill:#0000ff;stroke:#0000ff;" x="252.447226" xlink:href="#mf8f8345ec4" y="262.595309"/>
     <use style="fill:#0000ff;stroke:#0000ff;" x="270.521763" xlink:href="#mf8f8345ec4" y="232.848873"/>
     <use style="fill:#0000ff;stroke:#0000ff;" x="288.596301" xlink:href="#mf8f8345ec4" y="211.601419"/>
     <use style="fill:#0000ff;stroke:#0000ff;" x="306.670838" xlink:href="#mf8f8345ec4" y="194.603455"/>
     <use style="fill:#0000ff;stroke:#0000ff;" x="324.745376" xlink:href="#mf8f8345ec4" y="177.605491"/>
     <use style="fill:#0000ff;stroke:#0000ff;" x="342.819913" xlink:href="#mf8f8345ec4" y="164.857019"/>
     <use style="fill:#0000ff;stroke:#0000ff;" x="360.894451" xlink:href="#mf8f8345ec4" y="156.358037"/>
     <use style="fill:#0000ff;stroke:#0000ff;" x="378.968989" xlink:href="#mf8f8345ec4" y="147.859055"/>
     <use style="fill:#0000ff;stroke:#0000ff;" x="397.043526" xlink:href="#mf8f8345ec4" y="139.360073"/>
     <use style="fill:#0000ff;stroke:#0000ff;" x="415.118064" xlink:href="#mf8f8345ec4" y="135.110582"/>
     <use style="fill:#0000ff;stroke:#0000ff;" x="433.192601" xlink:href="#mf8f8345ec4" y="130.861091"/>
     <use style="fill:#0000ff;stroke:#0000ff;" x="451.267139" xlink:href="#mf8f8345ec4" y="126.611601"/>
     <use style="fill:#0000ff;stroke:#0000ff;" x="469.341677" xlink:href="#mf8f8345ec4" y="126.611601"/>
     <use style="fill:#0000ff;stroke:#0000ff;" x="487.416214" xlink:href="#mf8f8345ec4" y="122.36211"/>
     <use style="fill:#0000ff;stroke:#0000ff;" x="505.490752" xlink:href="#mf8f8345ec4" y="194.603455"/>
     <use style="fill:#0000ff;stroke:#0000ff;" x="523.565289" xlink:href="#mf8f8345ec4" y="266.8448"/>
     <use style="fill:#0000ff;stroke:#0000ff;" x="541.639827" xlink:href="#mf8f8345ec4" y="330.587164"/>
     <use style="fill:#0000ff;stroke:#0000ff;" x="559.714365" xlink:href="#mf8f8345ec4" y="377.331564"/>
     <use style="fill:#0000ff;stroke:#0000ff;" x="577.788902" xlink:href="#mf8f8345ec4" y="419.826473"/>
     <use style="fill:#0000ff;stroke:#0000ff;" x="595.86344" xlink:href="#mf8f8345ec4" y="453.8224"/>
     <use style="fill:#0000ff;stroke:#0000ff;" x="613.937977" xlink:href="#mf8f8345ec4" y="483.568837"/>
     <use style="fill:#0000ff;stroke:#0000ff;" x="632.012515" xlink:href="#mf8f8345ec4" y="509.065782"/>
     <use style="fill:#0000ff;stroke:#0000ff;" x="650.087053" xlink:href="#mf8f8345ec4" y="530.313236"/>
     <use style="fill:#0000ff;stroke:#0000ff;" x="668.16159" xlink:href="#mf8f8345ec4" y="547.3112"/>
     <use style="fill:#0000ff;stroke:#0000ff;" x="686.236128" xlink:href="#mf8f8345ec4" y="564.309164"/>
     <use style="fill:#0000ff;stroke:#0000ff;" x="704.310665" xlink:href="#mf8f8345ec4" y="577.057636"/>
     <use style="fill:#0000ff;stroke:#0000ff;" x="722.385203" xlink:href="#mf8f8345ec4" y="589.806109"/>
     <use style="fill:#0000ff;stroke:#0000ff;" x="740.45974" xlink:href="#mf8f8345ec4" y="594.0556"/>
     <use style="fill:#0000ff;stroke:#0000ff;" x="758.534278" xlink:href="#mf8f8345ec4" y="602.554582"/>
     <use style="fill:#0000ff;stroke:#0000ff;" x="776.608816" xlink:href="#mf8f8345ec4" y="611.053564"/>
     <use style="fill:#0000ff;stroke:#0000ff;" x="794.683353" xlink:href="#mf8f8345ec4" y="615.303055"/>
     <use style="fill:#0000ff;stroke:#0000ff;" x="812.757891" xlink:href="#mf8f8345ec4" y="619.552545"/>
     <use style="fill:#0000ff;stroke:#0000ff;" x="830.832428" xlink:href="#mf8f8345ec4" y="623.802036"/>
     <use style="fill:#0000ff;stroke:#0000ff;" x="848.906966" xlink:href="#mf8f8345ec4" y="628.051527"/>
     <use style="fill:#0000ff;stroke:#0000ff;" x="866.981504" xlink:href="#mf8f8345ec4" y="628.051527"/>
     <use style="fill:#0000ff;stroke:#0000ff;" x="885.056041" xlink:href="#mf8f8345ec4" y="632.301018"/>
     <use style="fill:#0000ff;stroke:#0000ff;" x="903.130579" xlink:href="#mf8f8345ec4" y="636.550509"/>
     <use style="fill:#0000ff;stroke:#0000ff;" x="921.205116" xlink:href="#mf8f8345ec4" y="636.550509"/>
     <use style="fill:#0000ff;stroke:#0000ff;" x="939.279654" xlink:href="#mf8f8345ec4" y="636.550509"/>
    </g>
   </g>
   <g id="matplotlib.axis_1">
    <g id="xtick_1">
     <g id="line2d_1">
      <path clip-path="url(#pdf1e84bea2)" d="M 144 640.8 
L 144 86.4 
" style="fill:none;stroke:#000000;stroke-linecap:square;stroke-width:0.8;"/>
     </g>
     <g id="line2d_2">
      <defs>
       <path d="M 0 0 
L 0 3.5 
" id="mda21f60e5e" style="stroke:#000000;stroke-width:0.8;"/>
      </defs>
      <g>
       <use style="stroke:#000000;stroke-width:0.8;" x="144" xlink:href="#mda21f60e5e" y="640.8"/>
      </g>
     </g>
     <g id="text_1">
      <!-- 0 -->
      <g transform="translate(140.81875 655.398438)scale(0.1 -0.1)">
       <defs>
        <path d="M 2034 4250 
Q 1547 4250 1301 3770 
Q 1056 3291 1056 2328 
Q 1056 1369 1301 889 
Q 1547 409 2034 409 
Q 2525 409 2770 889 
Q 3016 1369 3016 2328 
Q 3016 3291 2770 3770 
Q 2525 4250 2034 4250 
z
M 2034 4750 
Q 2819 4750 3233 4129 
Q 3647 3509 3647 2328 
Q 3647 1150 3233 529 
Q 2819 -91 2034 -91 
Q 1250 -91 836 529 
Q 422 1150 422 2328 
Q 422 3509 836 4129 
Q 1250 4750 2034 4750 
z
" id="DejaVuSans-30" transform="scale(0.015625)"/>
       </defs>
       <use xlink:href="#DejaVuSans-30"/>
      </g>
     </g>
    </g>
    <g id="xtick_2">
     <g id="line2d_3">
      <path clip-path="url(#pdf1e84bea2)" d="M 308.313978 640.8 
L 308.313978 86.4 
" style="fill:none;stroke:#000000;stroke-linecap:square;stroke-width:0.8;"/>
     </g>
     <g id="line2d_4">
      <g>
       <use style="stroke:#000000;stroke-width:0.8;" x="308.313978" xlink:href="#mda21f60e5e" y="640.8"/>
      </g>
     </g>
     <g id="text_2">
      <!-- 2 -->
      <g transform="translate(305.132728 655.398438)scale(0.1 -0.1)">
       <defs>
        <path d="M 1228 531 
L 3431 531 
L 3431 0 
L 469 0 
L 469 531 
Q 828 903 1448 1529 
Q 2069 2156 2228 2338 
Q 2531 2678 2651 2914 
Q 2772 3150 2772 3378 
Q 2772 3750 2511 3984 
Q 2250 4219 1831 4219 
Q 1534 4219 1204 4116 
Q 875 4013 500 3803 
L 500 4441 
Q 881 4594 1212 4672 
Q 1544 4750 1819 4750 
Q 2544 4750 2975 4387 
Q 3406 4025 3406 3419 
Q 3406 3131 3298 2873 
Q 3191 2616 2906 2266 
Q 2828 2175 2409 1742 
Q 1991 1309 1228 531 
z
" id="DejaVuSans-32" transform="scale(0.015625)"/>
       </defs>
       <use xlink:href="#DejaVuSans-32"/>
      </g>
     </g>
    </g>
    <g id="xtick_3">
     <g id="line2d_5">
      <path clip-path="url(#pdf1e84bea2)" d="M 472.627956 640.8 
L 472.627956 86.4 
" style="fill:none;stroke:#000000;stroke-linecap:square;stroke-width:0.8;"/>
     </g>
     <g id="line2d_6">
      <g>
       <use style="stroke:#000000;stroke-width:0.8;" x="472.627956" xlink:href="#mda21f60e5e" y="640.8"/>
      </g>
     </g>
     <g id="text_3">
      <!-- 4 -->
      <g transform="translate(469.446706 655.398438)scale(0.1 -0.1)">
       <defs>
        <path d="M 2419 4116 
L 825 1625 
L 2419 1625 
L 2419 4116 
z
M 2253 4666 
L 3047 4666 
L 3047 1625 
L 3713 1625 
L 3713 1100 
L 3047 1100 
L 3047 0 
L 2419 0 
L 2419 1100 
L 313 1100 
L 313 1709 
L 2253 4666 
z
" id="DejaVuSans-34" transform="scale(0.015625)"/>
       </defs>
       <use xlink:href="#DejaVuSans-34"/>
      </g>
     </g>
    </g>
    <g id="xtick_4">
     <g id="line2d_7">
      <path clip-path="url(#pdf1e84bea2)" d="M 636.941934 640.8 
L 636.941934 86.4 
" style="fill:none;stroke:#000000;stroke-linecap:square;stroke-width:0.8;"/>
     </g>
     <g id="line2d_8">
      <g>
       <use style="stroke:#000000;stroke-width:0.8;" x="636.941934" xlink:href="#mda21f60e5e" y="640.8"/>
      </g>
     </g>
     <g id="text_4">
      <!-- 6 -->
      <g transform="translate(633.760684 655.398438)scale(0.1 -0.1)">
       <defs>
        <path d="M 2113 2584 
Q 1688 2584 1439 2293 
Q 1191 2003 1191 1497 
Q 1191 994 1439 701 
Q 1688 409 2113 409 
Q 2538 409 2786 701 
Q 3034 994 3034 1497 
Q 3034 2003 2786 2293 
Q 2538 2584 2113 2584 
z
M 3366 4563 
L 3366 3988 
Q 3128 4100 2886 4159 
Q 2644 4219 2406 4219 
Q 1781 4219 1451 3797 
Q 1122 3375 1075 2522 
Q 1259 2794 1537 2939 
Q 1816 3084 2150 3084 
Q 2853 3084 3261 2657 
Q 3669 2231 3669 1497 
Q 3669 778 3244 343 
Q 2819 -91 2113 -91 
Q 1303 -91 875 529 
Q 447 1150 447 2328 
Q 447 3434 972 4092 
Q 1497 4750 2381 4750 
Q 2619 4750 2861 4703 
Q 3103 4656 3366 4563 
z
" id="DejaVuSans-36" transform="scale(0.015625)"/>
       </defs>
       <use xlink:href="#DejaVuSans-36"/>
      </g>
     </g>
    </g>
    <g id="xtick_5">
     <g id="line2d_9">
      <path clip-path="url(#pdf1e84bea2)" d="M 801.255912 640.8 
L 801.255912 86.4 
" style="fill:none;stroke:#000000;stroke-linecap:square;stroke-width:0.8;"/>
     </g>
     <g id="line2d_10">
      <g>
       <use style="stroke:#000000;stroke-width:0.8;" x="801.255912" xlink:href="#mda21f60e5e" y="640.8"/>
      </g>
     </g>
     <g id="text_5">
      <!-- 8 -->
      <g transform="translate(798.074662 655.398438)scale(0.1 -0.1)">
       <defs>
        <path d="M 2034 2216 
Q 1584 2216 1326 1975 
Q 1069 1734 1069 1313 
Q 1069 891 1326 650 
Q 1584 409 2034 409 
Q 2484 409 2743 651 
Q 3003 894 3003 1313 
Q 3003 1734 2745 1975 
Q 2488 2216 2034 2216 
z
M 1403 2484 
Q 997 2584 770 2862 
Q 544 3141 544 3541 
Q 544 4100 942 4425 
Q 1341 4750 2034 4750 
Q 2731 4750 3128 4425 
Q 3525 4100 3525 3541 
Q 3525 3141 3298 2862 
Q 3072 2584 2669 2484 
Q 3125 2378 3379 2068 
Q 3634 1759 3634 1313 
Q 3634 634 3220 271 
Q 2806 -91 2034 -91 
Q 1263 -91 848 271 
Q 434 634 434 1313 
Q 434 1759 690 2068 
Q 947 2378 1403 2484 
z
M 1172 3481 
Q 1172 3119 1398 2916 
Q 1625 2713 2034 2713 
Q 2441 2713 2670 2916 
Q 2900 3119 2900 3481 
Q 2900 3844 2670 4047 
Q 2441 4250 2034 4250 
Q 1625 4250 1398 4047 
Q 1172 3844 1172 3481 
z
" id="DejaVuSans-38" transform="scale(0.015625)"/>
       </defs>
       <use xlink:href="#DejaVuSans-38"/>
      </g>
     </g>
    </g>
    <g id="xtick_6">
     <g id="line2d_11">
      <path clip-path="url(#pdf1e84bea2)" d="M 965.56989 640.8 
L 965.56989 86.4 
" style="fill:none;stroke:#000000;stroke-linecap:square;stroke-width:0.8;"/>
     </g>
     <g id="line2d_12">
      <g>
       <use style="stroke:#000000;stroke-width:0.8;" x="965.56989" xlink:href="#mda21f60e5e" y="640.8"/>
      </g>
     </g>
     <g id="text_6">
      <!-- 10 -->
      <g transform="translate(959.20739 655.398438)scale(0.1 -0.1)">
       <defs>
        <path d="M 794 531 
L 1825 531 
L 1825 4091 
L 703 3866 
L 703 4441 
L 1819 4666 
L 2450 4666 
L 2450 531 
L 3481 531 
L 3481 0 
L 794 0 
L 794 531 
z
" id="DejaVuSans-31" transform="scale(0.015625)"/>
       </defs>
       <use xlink:href="#DejaVuSans-31"/>
       <use x="63.623047" xlink:href="#DejaVuSans-30"/>
      </g>
     </g>
    </g>
    <g id="xtick_7">
     <g id="line2d_13">
      <path clip-path="url(#pdf1e84bea2)" d="M 185.078495 640.8 
L 185.078495 86.4 
" style="fill:none;stroke:#808080;stroke-dasharray:2.96,1.28;stroke-dashoffset:0;stroke-width:0.8;"/>
     </g>
     <g id="line2d_14">
      <defs>
       <path d="M 0 0 
L 0 2 
" id="mabe2f67c80" style="stroke:#000000;stroke-width:0.6;"/>
      </defs>
      <g>
       <use style="stroke:#000000;stroke-width:0.6;" x="185.078495" xlink:href="#mabe2f67c80" y="640.8"/>
      </g>
     </g>
    </g>
    <g id="xtick_8">
     <g id="line2d_15">
      <path clip-path="url(#pdf1e84bea2)" d="M 226.156989 640.8 
L 226.156989 86.4 
" style="fill:none;stroke:#808080;stroke-dasharray:2.96,1.28;stroke-dashoffset:0;stroke-width:0.8;"/>
     </g>
     <g id="line2d_16">
      <g>
       <use style="stroke:#000000;stroke-width:0.6;" x="226.156989" xlink:href="#mabe2f67c80" y="640.8"/>
      </g>
     </g>
    </g>
    <g id="xtick_9">
     <g id="line2d_17">
      <path clip-path="url(#pdf1e84bea2)" d="M 267.235484 640.8 
L 267.235484 86.4 
" style="fill:none;stroke:#808080;stroke-dasharray:2.96,1.28;stroke-dashoffset:0;stroke-width:0.8;"/>
     </g>
     <g id="line2d_18">
      <g>
       <use style="stroke:#000000;stroke-width:0.6;" x="267.235484" xlink:href="#mabe2f67c80" y="640.8"/>
      </g>
     </g>
    </g>
    <g id="xtick_10">
     <g id="line2d_19">
      <path clip-path="url(#pdf1e84bea2)" d="M 349.392473 640.8 
L 349.392473 86.4 
" style="fill:none;stroke:#808080;stroke-dasharray:2.96,1.28;stroke-dashoffset:0;stroke-width:0.8;"/>
     </g>
     <g id="line2d_20">
      <g>
       <use style="stroke:#000000;stroke-width:0.6;" x="349.392473" xlink:href="#mabe2f67c80" y="640.8"/>
      </g>
     </g>
    </g>
    <g id="xtick_11">
     <g id="line2d_21">
      <path clip-path="url(#pdf1e84bea2)" d="M 390.470967 640.8 
L 390.470967 86.4 
" style="fill:none;stroke:#808080;stroke-dasharray:2.96,1.28;stroke-dashoffset:0;stroke-width:0.8;"/>
     </g>
     <g id="line2d_22">
      <g>
       <use style="stroke:#000000;stroke-width:0.6;" x="390.470967" xlink:href="#mabe2f67c80" y="640.8"/>
      </g>
     </g>
    </g>
    <g id="xtick_12">
     <g id="line2d_23">
      <path clip-path="url(#pdf1e84bea2)" d="M 431.549462 640.8 
L 431.549462 86.4 
" style="fill:none;stroke:#808080;stroke-dasharray:2.96,1.28;stroke-dashoffset:0;stroke-width:0.8;"/>
     </g>
     <g id="line2d_24">
      <g>
       <use style="stroke:#000000;stroke-width:0.6;" x="431.549462" xlink:href="#mabe2f67c80" y="640.8"/>
      </g>
     </g>
    </g>
    <g id="xtick_13">
     <g id="line2d_25">
      <path clip-path="url(#pdf1e84bea2)" d="M 513.706451 640.8 
L 513.706451 86.4 
" style="fill:none;stroke:#808080;stroke-dasharray:2.96,1.28;stroke-dashoffset:0;stroke-width:0.8;"/>
     </g>
     <g id="line2d_26">
      <g>
       <use style="stroke:#000000;stroke-width:0.6;" x="513.706451" xlink:href="#mabe2f67c80" y="640.8"/>
      </g>
     </g>
    </g>
    <g id="xtick_14">
     <g id="line2d_27">
      <path clip-path="url(#pdf1e84bea2)" d="M 554.784945 640.8 
L 554.784945 86.4 
" style="fill:none;stroke:#808080;stroke-dasharray:2.96,1.28;stroke-dashoffset:0;stroke-width:0.8;"/>
     </g>
     <g id="line2d_28">
      <g>
       <use style="stroke:#000000;stroke-width:0.6;" x="554.784945" xlink:href="#mabe2f67c80" y="640.8"/>
      </g>
     </g>
    </g>
    <g id="xtick_15">
     <g id="line2d_29">
      <path clip-path="url(#pdf1e84bea2)" d="M 595.86344 640.8 
L 595.86344 86.4 
" style="fill:none;stroke:#808080;stroke-dasharray:2.96,1.28;stroke-dashoffset:0;stroke-width:0.8;"/>
     </g>
     <g id="line2d_30">
      <g>
       <use style="stroke:#000000;stroke-width:0.6;" x="595.86344" xlink:href="#mabe2f67c80" y="640.8"/>
      </g>
     </g>
    </g>
    <g id="xtick_16">
     <g id="line2d_31">
      <path clip-path="url(#pdf1e84bea2)" d="M 678.020429 640.8 
L 678.020429 86.4 
" style="fill:none;stroke:#808080;stroke-dasharray:2.96,1.28;stroke-dashoffset:0;stroke-width:0.8;"/>
     </g>
     <g id="line2d_32">
      <g>
       <use style="stroke:#000000;stroke-width:0.6;" x="678.020429" xlink:href="#mabe2f67c80" y="640.8"/>
      </g>
     </g>
    </g>
    <g id="xtick_17">
     <g id="line2d_33">
      <path clip-path="url(#pdf1e84bea2)" d="M 719.098923 640.8 
L 719.098923 86.4 
" style="fill:none;stroke:#808080;stroke-dasharray:2.96,1.28;stroke-dashoffset:0;stroke-width:0.8;"/>
     </g>
     <g id="line2d_34">
      <g>
       <use style="stroke:#000000;stroke-width:0.6;" x="719.098923" xlink:href="#mabe2f67c80" y="640.8"/>
      </g>
     </g>
    </g>
    <g id="xtick_18">
     <g id="line2d_35">
      <path clip-path="url(#pdf1e84bea2)" d="M 760.177418 640.8 
L 760.177418 86.4 
" style="fill:none;stroke:#808080;stroke-dasharray:2.96,1.28;stroke-dashoffset:0;stroke-width:0.8;"/>
     </g>
     <g id="line2d_36">
      <g>
       <use style="stroke:#000000;stroke-width:0.6;" x="760.177418" xlink:href="#mabe2f67c80" y="640.8"/>
      </g>
     </g>
    </g>
    <g id="xtick_19">
     <g id="line2d_37">
      <path clip-path="url(#pdf1e84bea2)" d="M 842.334407 640.8 
L 842.334407 86.4 
" style="fill:none;stroke:#808080;stroke-dasharray:2.96,1.28;stroke-dashoffset:0;stroke-width:0.8;"/>
     </g>
     <g id="line2d_38">
      <g>
       <use style="stroke:#000000;stroke-width:0.6;" x="842.334407" xlink:href="#mabe2f67c80" y="640.8"/>
      </g>
     </g>
    </g>
    <g id="xtick_20">
     <g id="line2d_39">
      <path clip-path="url(#pdf1e84bea2)" d="M 883.412901 640.8 
L 883.412901 86.4 
" style="fill:none;stroke:#808080;stroke-dasharray:2.96,1.28;stroke-dashoffset:0;stroke-width:0.8;"/>
     </g>
     <g id="line2d_40">
      <g>
       <use style="stroke:#000000;stroke-width:0.6;" x="883.412901" xlink:href="#mabe2f67c80" y="640.8"/>
      </g>
     </g>
    </g>
    <g id="xtick_21">
     <g id="line2d_41">
      <path clip-path="url(#pdf1e84bea2)" d="M 924.491396 640.8 
L 924.491396 86.4 
" style="fill:none;stroke:#808080;stroke-dasharray:2.96,1.28;stroke-dashoffset:0;stroke-width:0.8;"/>
     </g>
     <g id="line2d_42">
      <g>
       <use style="stroke:#000000;stroke-width:0.6;" x="924.491396" xlink:href="#mabe2f67c80" y="640.8"/>
      </g>
     </g>
    </g>
    <g id="xtick_22">
     <g id="line2d_43">
      <path clip-path="url(#pdf1e84bea2)" d="M 1006.648385 640.8 
L 1006.648385 86.4 
" style="fill:none;stroke:#808080;stroke-dasharray:2.96,1.28;stroke-dashoffset:0;stroke-width:0.8;"/>
     </g>
     <g id="line2d_44">
      <g>
       <use style="stroke:#000000;stroke-width:0.6;" x="1006.648385" xlink:href="#mabe2f67c80" y="640.8"/>
      </g>
     </g>
    </g>
    <g id="text_7">
     <!-- Время $\tau$, с -->
     <g transform="translate(536.4 676.634375)scale(0.2 -0.2)">
      <defs>
       <path d="M 1259 2228 
L 1259 519 
L 2272 519 
Q 2781 519 3026 730 
Q 3272 941 3272 1375 
Q 3272 1813 3026 2020 
Q 2781 2228 2272 2228 
L 1259 2228 
z
M 1259 4147 
L 1259 2741 
L 2194 2741 
Q 2656 2741 2882 2914 
Q 3109 3088 3109 3444 
Q 3109 3797 2882 3972 
Q 2656 4147 2194 4147 
L 1259 4147 
z
M 628 4666 
L 2241 4666 
Q 2963 4666 3353 4366 
Q 3744 4066 3744 3513 
Q 3744 3084 3544 2831 
Q 3344 2578 2956 2516 
Q 3422 2416 3680 2098 
Q 3938 1781 3938 1306 
Q 3938 681 3513 340 
Q 3088 0 2303 0 
L 628 0 
L 628 4666 
z
" id="DejaVuSans-412" transform="scale(0.015625)"/>
       <path d="M 1159 525 
L 1159 -1331 
L 581 -1331 
L 581 3500 
L 1159 3500 
L 1159 2969 
Q 1341 3281 1617 3432 
Q 1894 3584 2278 3584 
Q 2916 3584 3314 3078 
Q 3713 2572 3713 1747 
Q 3713 922 3314 415 
Q 2916 -91 2278 -91 
Q 1894 -91 1617 61 
Q 1341 213 1159 525 
z
M 3116 1747 
Q 3116 2381 2855 2742 
Q 2594 3103 2138 3103 
Q 1681 3103 1420 2742 
Q 1159 2381 1159 1747 
Q 1159 1113 1420 752 
Q 1681 391 2138 391 
Q 2594 391 2855 752 
Q 3116 1113 3116 1747 
z
" id="DejaVuSans-440" transform="scale(0.015625)"/>
       <path d="M 3597 1894 
L 3597 1613 
L 953 1613 
Q 991 1019 1311 708 
Q 1631 397 2203 397 
Q 2534 397 2845 478 
Q 3156 559 3463 722 
L 3463 178 
Q 3153 47 2828 -22 
Q 2503 -91 2169 -91 
Q 1331 -91 842 396 
Q 353 884 353 1716 
Q 353 2575 817 3079 
Q 1281 3584 2069 3584 
Q 2775 3584 3186 3129 
Q 3597 2675 3597 1894 
z
M 3022 2063 
Q 3016 2534 2758 2815 
Q 2500 3097 2075 3097 
Q 1594 3097 1305 2825 
Q 1016 2553 972 2059 
L 3022 2063 
z
" id="DejaVuSans-435" transform="scale(0.015625)"/>
       <path d="M 581 3500 
L 1422 3500 
L 2416 1156 
L 3413 3500 
L 4247 3500 
L 4247 0 
L 3669 0 
L 3669 2950 
L 2703 672 
L 2128 672 
L 1159 2950 
L 1159 0 
L 581 0 
L 581 3500 
z
" id="DejaVuSans-43c" transform="scale(0.015625)"/>
       <path d="M 1181 2491 
Q 1181 2231 1381 2084 
Q 1581 1938 1953 1938 
L 2728 1938 
L 2728 3041 
L 1953 3041 
Q 1581 3041 1381 2897 
Q 1181 2753 1181 2491 
z
M 363 0 
L 1431 1534 
Q 1069 1616 828 1830 
Q 588 2044 588 2491 
Q 588 2997 923 3248 
Q 1259 3500 1938 3500 
L 3306 3500 
L 3306 0 
L 2728 0 
L 2728 1478 
L 2013 1478 
L 981 0 
L 363 0 
z
" id="DejaVuSans-44f" transform="scale(0.015625)"/>
       <path id="DejaVuSans-20" transform="scale(0.015625)"/>
       <path d="M 2103 638 
Q 2188 488 2525 488 
L 2800 488 
L 2706 0 
L 2363 0 
Q 1800 0 1600 300 
Q 1403 606 1534 1269 
L 1856 2925 
L 541 2925 
L 653 3500 
L 3881 3500 
L 3769 2925 
L 2444 2925 
L 2113 1234 
Q 2025 781 2103 638 
z
" id="DejaVuSans-Oblique-3c4" transform="scale(0.015625)"/>
       <path d="M 750 794 
L 1409 794 
L 1409 256 
L 897 -744 
L 494 -744 
L 750 256 
L 750 794 
z
" id="DejaVuSans-2c" transform="scale(0.015625)"/>
       <path d="M 3122 3366 
L 3122 2828 
Q 2878 2963 2633 3030 
Q 2388 3097 2138 3097 
Q 1578 3097 1268 2742 
Q 959 2388 959 1747 
Q 959 1106 1268 751 
Q 1578 397 2138 397 
Q 2388 397 2633 464 
Q 2878 531 3122 666 
L 3122 134 
Q 2881 22 2623 -34 
Q 2366 -91 2075 -91 
Q 1284 -91 818 406 
Q 353 903 353 1747 
Q 353 2603 823 3093 
Q 1294 3584 2113 3584 
Q 2378 3584 2631 3529 
Q 2884 3475 3122 3366 
z
" id="DejaVuSans-441" transform="scale(0.015625)"/>
      </defs>
      <use transform="translate(0 0.09375)" xlink:href="#DejaVuSans-412"/>
      <use transform="translate(68.603516 0.09375)" xlink:href="#DejaVuSans-440"/>
      <use transform="translate(132.080078 0.09375)" xlink:href="#DejaVuSans-435"/>
      <use transform="translate(193.603516 0.09375)" xlink:href="#DejaVuSans-43c"/>
      <use transform="translate(269.042969 0.09375)" xlink:href="#DejaVuSans-44f"/>
      <use transform="translate(329.199219 0.09375)" xlink:href="#DejaVuSans-20"/>
      <use transform="translate(360.986328 0.09375)" xlink:href="#DejaVuSans-Oblique-3c4"/>
      <use transform="translate(421.191406 0.09375)" xlink:href="#DejaVuSans-2c"/>
      <use transform="translate(452.978516 0.09375)" xlink:href="#DejaVuSans-20"/>
      <use transform="translate(484.765625 0.09375)" xlink:href="#DejaVuSans-441"/>
     </g>
    </g>
   </g>
   <g id="matplotlib.axis_2">
    <g id="ytick_1">
     <g id="line2d_45">
      <path clip-path="url(#pdf1e84bea2)" d="M 144 563.643199 
L 1036.8 563.643199 
" style="fill:none;stroke:#000000;stroke-linecap:square;stroke-width:0.8;"/>
     </g>
     <g id="line2d_46">
      <defs>
       <path d="M 0 0 
L -3.5 0 
" id="m2b6d70d8b4" style="stroke:#000000;stroke-width:0.8;"/>
      </defs>
      <g>
       <use style="stroke:#000000;stroke-width:0.8;" x="144" xlink:href="#m2b6d70d8b4" y="563.643199"/>
      </g>
     </g>
     <g id="text_8">
      <!-- 0.5 -->
      <g transform="translate(121.096875 567.442417)scale(0.1 -0.1)">
       <defs>
        <path d="M 684 794 
L 1344 794 
L 1344 0 
L 684 0 
L 684 794 
z
" id="DejaVuSans-2e" transform="scale(0.015625)"/>
        <path d="M 691 4666 
L 3169 4666 
L 3169 4134 
L 1269 4134 
L 1269 2991 
Q 1406 3038 1543 3061 
Q 1681 3084 1819 3084 
Q 2600 3084 3056 2656 
Q 3513 2228 3513 1497 
Q 3513 744 3044 326 
Q 2575 -91 1722 -91 
Q 1428 -91 1123 -41 
Q 819 9 494 109 
L 494 744 
Q 775 591 1075 516 
Q 1375 441 1709 441 
Q 2250 441 2565 725 
Q 2881 1009 2881 1497 
Q 2881 1984 2565 2268 
Q 2250 2553 1709 2553 
Q 1456 2553 1204 2497 
Q 953 2441 691 2322 
L 691 4666 
z
" id="DejaVuSans-35" transform="scale(0.015625)"/>
       </defs>
       <use xlink:href="#DejaVuSans-30"/>
       <use x="63.623047" xlink:href="#DejaVuSans-2e"/>
       <use x="95.410156" xlink:href="#DejaVuSans-35"/>
      </g>
     </g>
    </g>
    <g id="ytick_2">
     <g id="line2d_47">
      <path clip-path="url(#pdf1e84bea2)" d="M 144 484.361652 
L 1036.8 484.361652 
" style="fill:none;stroke:#000000;stroke-linecap:square;stroke-width:0.8;"/>
     </g>
     <g id="line2d_48">
      <g>
       <use style="stroke:#000000;stroke-width:0.8;" x="144" xlink:href="#m2b6d70d8b4" y="484.361652"/>
      </g>
     </g>
     <g id="text_9">
      <!-- 1.0 -->
      <g transform="translate(121.096875 488.160871)scale(0.1 -0.1)">
       <use xlink:href="#DejaVuSans-31"/>
       <use x="63.623047" xlink:href="#DejaVuSans-2e"/>
       <use x="95.410156" xlink:href="#DejaVuSans-30"/>
      </g>
     </g>
    </g>
    <g id="ytick_3">
     <g id="line2d_49">
      <path clip-path="url(#pdf1e84bea2)" d="M 144 405.080105 
L 1036.8 405.080105 
" style="fill:none;stroke:#000000;stroke-linecap:square;stroke-width:0.8;"/>
     </g>
     <g id="line2d_50">
      <g>
       <use style="stroke:#000000;stroke-width:0.8;" x="144" xlink:href="#m2b6d70d8b4" y="405.080105"/>
      </g>
     </g>
     <g id="text_10">
      <!-- 1.5 -->
      <g transform="translate(121.096875 408.879324)scale(0.1 -0.1)">
       <use xlink:href="#DejaVuSans-31"/>
       <use x="63.623047" xlink:href="#DejaVuSans-2e"/>
       <use x="95.410156" xlink:href="#DejaVuSans-35"/>
      </g>
     </g>
    </g>
    <g id="ytick_4">
     <g id="line2d_51">
      <path clip-path="url(#pdf1e84bea2)" d="M 144 325.798559 
L 1036.8 325.798559 
" style="fill:none;stroke:#000000;stroke-linecap:square;stroke-width:0.8;"/>
     </g>
     <g id="line2d_52">
      <g>
       <use style="stroke:#000000;stroke-width:0.8;" x="144" xlink:href="#m2b6d70d8b4" y="325.798559"/>
      </g>
     </g>
     <g id="text_11">
      <!-- 2.0 -->
      <g transform="translate(121.096875 329.597777)scale(0.1 -0.1)">
       <use xlink:href="#DejaVuSans-32"/>
       <use x="63.623047" xlink:href="#DejaVuSans-2e"/>
       <use x="95.410156" xlink:href="#DejaVuSans-30"/>
      </g>
     </g>
    </g>
    <g id="ytick_5">
     <g id="line2d_53">
      <path clip-path="url(#pdf1e84bea2)" d="M 144 246.517012 
L 1036.8 246.517012 
" style="fill:none;stroke:#000000;stroke-linecap:square;stroke-width:0.8;"/>
     </g>
     <g id="line2d_54">
      <g>
       <use style="stroke:#000000;stroke-width:0.8;" x="144" xlink:href="#m2b6d70d8b4" y="246.517012"/>
      </g>
     </g>
     <g id="text_12">
      <!-- 2.5 -->
      <g transform="translate(121.096875 250.316231)scale(0.1 -0.1)">
       <use xlink:href="#DejaVuSans-32"/>
       <use x="63.623047" xlink:href="#DejaVuSans-2e"/>
       <use x="95.410156" xlink:href="#DejaVuSans-35"/>
      </g>
     </g>
    </g>
    <g id="ytick_6">
     <g id="line2d_55">
      <path clip-path="url(#pdf1e84bea2)" d="M 144 167.235465 
L 1036.8 167.235465 
" style="fill:none;stroke:#000000;stroke-linecap:square;stroke-width:0.8;"/>
     </g>
     <g id="line2d_56">
      <g>
       <use style="stroke:#000000;stroke-width:0.8;" x="144" xlink:href="#m2b6d70d8b4" y="167.235465"/>
      </g>
     </g>
     <g id="text_13">
      <!-- 3.0 -->
      <g transform="translate(121.096875 171.034684)scale(0.1 -0.1)">
       <defs>
        <path d="M 2597 2516 
Q 3050 2419 3304 2112 
Q 3559 1806 3559 1356 
Q 3559 666 3084 287 
Q 2609 -91 1734 -91 
Q 1441 -91 1130 -33 
Q 819 25 488 141 
L 488 750 
Q 750 597 1062 519 
Q 1375 441 1716 441 
Q 2309 441 2620 675 
Q 2931 909 2931 1356 
Q 2931 1769 2642 2001 
Q 2353 2234 1838 2234 
L 1294 2234 
L 1294 2753 
L 1863 2753 
Q 2328 2753 2575 2939 
Q 2822 3125 2822 3475 
Q 2822 3834 2567 4026 
Q 2313 4219 1838 4219 
Q 1578 4219 1281 4162 
Q 984 4106 628 3988 
L 628 4550 
Q 988 4650 1302 4700 
Q 1616 4750 1894 4750 
Q 2613 4750 3031 4423 
Q 3450 4097 3450 3541 
Q 3450 3153 3228 2886 
Q 3006 2619 2597 2516 
z
" id="DejaVuSans-33" transform="scale(0.015625)"/>
       </defs>
       <use xlink:href="#DejaVuSans-33"/>
       <use x="63.623047" xlink:href="#DejaVuSans-2e"/>
       <use x="95.410156" xlink:href="#DejaVuSans-30"/>
      </g>
     </g>
    </g>
    <g id="ytick_7">
     <g id="line2d_57">
      <path clip-path="url(#pdf1e84bea2)" d="M 144 87.953918 
L 1036.8 87.953918 
" style="fill:none;stroke:#000000;stroke-linecap:square;stroke-width:0.8;"/>
     </g>
     <g id="line2d_58">
      <g>
       <use style="stroke:#000000;stroke-width:0.8;" x="144" xlink:href="#m2b6d70d8b4" y="87.953918"/>
      </g>
     </g>
     <g id="text_14">
      <!-- 3.5 -->
      <g transform="translate(121.096875 91.753137)scale(0.1 -0.1)">
       <use xlink:href="#DejaVuSans-33"/>
       <use x="63.623047" xlink:href="#DejaVuSans-2e"/>
       <use x="95.410156" xlink:href="#DejaVuSans-35"/>
      </g>
     </g>
    </g>
    <g id="ytick_8">
     <g id="line2d_59">
      <path clip-path="url(#pdf1e84bea2)" d="M 144 627.068436 
L 1036.8 627.068436 
" style="fill:none;stroke:#808080;stroke-dasharray:2.96,1.28;stroke-dashoffset:0;stroke-width:0.8;"/>
     </g>
     <g id="line2d_60">
      <defs>
       <path d="M 0 0 
L -2 0 
" id="me13ae90699" style="stroke:#000000;stroke-width:0.6;"/>
      </defs>
      <g>
       <use style="stroke:#000000;stroke-width:0.6;" x="144" xlink:href="#me13ae90699" y="627.068436"/>
      </g>
     </g>
    </g>
    <g id="ytick_9">
     <g id="line2d_61">
      <path clip-path="url(#pdf1e84bea2)" d="M 144 611.212127 
L 1036.8 611.212127 
" style="fill:none;stroke:#808080;stroke-dasharray:2.96,1.28;stroke-dashoffset:0;stroke-width:0.8;"/>
     </g>
     <g id="line2d_62">
      <g>
       <use style="stroke:#000000;stroke-width:0.6;" x="144" xlink:href="#me13ae90699" y="611.212127"/>
      </g>
     </g>
    </g>
    <g id="ytick_10">
     <g id="line2d_63">
      <path clip-path="url(#pdf1e84bea2)" d="M 144 595.355817 
L 1036.8 595.355817 
" style="fill:none;stroke:#808080;stroke-dasharray:2.96,1.28;stroke-dashoffset:0;stroke-width:0.8;"/>
     </g>
     <g id="line2d_64">
      <g>
       <use style="stroke:#000000;stroke-width:0.6;" x="144" xlink:href="#me13ae90699" y="595.355817"/>
      </g>
     </g>
    </g>
    <g id="ytick_11">
     <g id="line2d_65">
      <path clip-path="url(#pdf1e84bea2)" d="M 144 579.499508 
L 1036.8 579.499508 
" style="fill:none;stroke:#808080;stroke-dasharray:2.96,1.28;stroke-dashoffset:0;stroke-width:0.8;"/>
     </g>
     <g id="line2d_66">
      <g>
       <use style="stroke:#000000;stroke-width:0.6;" x="144" xlink:href="#me13ae90699" y="579.499508"/>
      </g>
     </g>
    </g>
    <g id="ytick_12">
     <g id="line2d_67">
      <path clip-path="url(#pdf1e84bea2)" d="M 144 547.786889 
L 1036.8 547.786889 
" style="fill:none;stroke:#808080;stroke-dasharray:2.96,1.28;stroke-dashoffset:0;stroke-width:0.8;"/>
     </g>
     <g id="line2d_68">
      <g>
       <use style="stroke:#000000;stroke-width:0.6;" x="144" xlink:href="#me13ae90699" y="547.786889"/>
      </g>
     </g>
    </g>
    <g id="ytick_13">
     <g id="line2d_69">
      <path clip-path="url(#pdf1e84bea2)" d="M 144 531.93058 
L 1036.8 531.93058 
" style="fill:none;stroke:#808080;stroke-dasharray:2.96,1.28;stroke-dashoffset:0;stroke-width:0.8;"/>
     </g>
     <g id="line2d_70">
      <g>
       <use style="stroke:#000000;stroke-width:0.6;" x="144" xlink:href="#me13ae90699" y="531.93058"/>
      </g>
     </g>
    </g>
    <g id="ytick_14">
     <g id="line2d_71">
      <path clip-path="url(#pdf1e84bea2)" d="M 144 516.074271 
L 1036.8 516.074271 
" style="fill:none;stroke:#808080;stroke-dasharray:2.96,1.28;stroke-dashoffset:0;stroke-width:0.8;"/>
     </g>
     <g id="line2d_72">
      <g>
       <use style="stroke:#000000;stroke-width:0.6;" x="144" xlink:href="#me13ae90699" y="516.074271"/>
      </g>
     </g>
    </g>
    <g id="ytick_15">
     <g id="line2d_73">
      <path clip-path="url(#pdf1e84bea2)" d="M 144 500.217961 
L 1036.8 500.217961 
" style="fill:none;stroke:#808080;stroke-dasharray:2.96,1.28;stroke-dashoffset:0;stroke-width:0.8;"/>
     </g>
     <g id="line2d_74">
      <g>
       <use style="stroke:#000000;stroke-width:0.6;" x="144" xlink:href="#me13ae90699" y="500.217961"/>
      </g>
     </g>
    </g>
    <g id="ytick_16">
     <g id="line2d_75">
      <path clip-path="url(#pdf1e84bea2)" d="M 144 468.505343 
L 1036.8 468.505343 
" style="fill:none;stroke:#808080;stroke-dasharray:2.96,1.28;stroke-dashoffset:0;stroke-width:0.8;"/>
     </g>
     <g id="line2d_76">
      <g>
       <use style="stroke:#000000;stroke-width:0.6;" x="144" xlink:href="#me13ae90699" y="468.505343"/>
      </g>
     </g>
    </g>
    <g id="ytick_17">
     <g id="line2d_77">
      <path clip-path="url(#pdf1e84bea2)" d="M 144 452.649033 
L 1036.8 452.649033 
" style="fill:none;stroke:#808080;stroke-dasharray:2.96,1.28;stroke-dashoffset:0;stroke-width:0.8;"/>
     </g>
     <g id="line2d_78">
      <g>
       <use style="stroke:#000000;stroke-width:0.6;" x="144" xlink:href="#me13ae90699" y="452.649033"/>
      </g>
     </g>
    </g>
    <g id="ytick_18">
     <g id="line2d_79">
      <path clip-path="url(#pdf1e84bea2)" d="M 144 436.792724 
L 1036.8 436.792724 
" style="fill:none;stroke:#808080;stroke-dasharray:2.96,1.28;stroke-dashoffset:0;stroke-width:0.8;"/>
     </g>
     <g id="line2d_80">
      <g>
       <use style="stroke:#000000;stroke-width:0.6;" x="144" xlink:href="#me13ae90699" y="436.792724"/>
      </g>
     </g>
    </g>
    <g id="ytick_19">
     <g id="line2d_81">
      <path clip-path="url(#pdf1e84bea2)" d="M 144 420.936415 
L 1036.8 420.936415 
" style="fill:none;stroke:#808080;stroke-dasharray:2.96,1.28;stroke-dashoffset:0;stroke-width:0.8;"/>
     </g>
     <g id="line2d_82">
      <g>
       <use style="stroke:#000000;stroke-width:0.6;" x="144" xlink:href="#me13ae90699" y="420.936415"/>
      </g>
     </g>
    </g>
    <g id="ytick_20">
     <g id="line2d_83">
      <path clip-path="url(#pdf1e84bea2)" d="M 144 389.223796 
L 1036.8 389.223796 
" style="fill:none;stroke:#808080;stroke-dasharray:2.96,1.28;stroke-dashoffset:0;stroke-width:0.8;"/>
     </g>
     <g id="line2d_84">
      <g>
       <use style="stroke:#000000;stroke-width:0.6;" x="144" xlink:href="#me13ae90699" y="389.223796"/>
      </g>
     </g>
    </g>
    <g id="ytick_21">
     <g id="line2d_85">
      <path clip-path="url(#pdf1e84bea2)" d="M 144 373.367487 
L 1036.8 373.367487 
" style="fill:none;stroke:#808080;stroke-dasharray:2.96,1.28;stroke-dashoffset:0;stroke-width:0.8;"/>
     </g>
     <g id="line2d_86">
      <g>
       <use style="stroke:#000000;stroke-width:0.6;" x="144" xlink:href="#me13ae90699" y="373.367487"/>
      </g>
     </g>
    </g>
    <g id="ytick_22">
     <g id="line2d_87">
      <path clip-path="url(#pdf1e84bea2)" d="M 144 357.511177 
L 1036.8 357.511177 
" style="fill:none;stroke:#808080;stroke-dasharray:2.96,1.28;stroke-dashoffset:0;stroke-width:0.8;"/>
     </g>
     <g id="line2d_88">
      <g>
       <use style="stroke:#000000;stroke-width:0.6;" x="144" xlink:href="#me13ae90699" y="357.511177"/>
      </g>
     </g>
    </g>
    <g id="ytick_23">
     <g id="line2d_89">
      <path clip-path="url(#pdf1e84bea2)" d="M 144 341.654868 
L 1036.8 341.654868 
" style="fill:none;stroke:#808080;stroke-dasharray:2.96,1.28;stroke-dashoffset:0;stroke-width:0.8;"/>
     </g>
     <g id="line2d_90">
      <g>
       <use style="stroke:#000000;stroke-width:0.6;" x="144" xlink:href="#me13ae90699" y="341.654868"/>
      </g>
     </g>
    </g>
    <g id="ytick_24">
     <g id="line2d_91">
      <path clip-path="url(#pdf1e84bea2)" d="M 144 309.942249 
L 1036.8 309.942249 
" style="fill:none;stroke:#808080;stroke-dasharray:2.96,1.28;stroke-dashoffset:0;stroke-width:0.8;"/>
     </g>
     <g id="line2d_92">
      <g>
       <use style="stroke:#000000;stroke-width:0.6;" x="144" xlink:href="#me13ae90699" y="309.942249"/>
      </g>
     </g>
    </g>
    <g id="ytick_25">
     <g id="line2d_93">
      <path clip-path="url(#pdf1e84bea2)" d="M 144 294.08594 
L 1036.8 294.08594 
" style="fill:none;stroke:#808080;stroke-dasharray:2.96,1.28;stroke-dashoffset:0;stroke-width:0.8;"/>
     </g>
     <g id="line2d_94">
      <g>
       <use style="stroke:#000000;stroke-width:0.6;" x="144" xlink:href="#me13ae90699" y="294.08594"/>
      </g>
     </g>
    </g>
    <g id="ytick_26">
     <g id="line2d_95">
      <path clip-path="url(#pdf1e84bea2)" d="M 144 278.22963 
L 1036.8 278.22963 
" style="fill:none;stroke:#808080;stroke-dasharray:2.96,1.28;stroke-dashoffset:0;stroke-width:0.8;"/>
     </g>
     <g id="line2d_96">
      <g>
       <use style="stroke:#000000;stroke-width:0.6;" x="144" xlink:href="#me13ae90699" y="278.22963"/>
      </g>
     </g>
    </g>
    <g id="ytick_27">
     <g id="line2d_97">
      <path clip-path="url(#pdf1e84bea2)" d="M 144 262.373321 
L 1036.8 262.373321 
" style="fill:none;stroke:#808080;stroke-dasharray:2.96,1.28;stroke-dashoffset:0;stroke-width:0.8;"/>
     </g>
     <g id="line2d_98">
      <g>
       <use style="stroke:#000000;stroke-width:0.6;" x="144" xlink:href="#me13ae90699" y="262.373321"/>
      </g>
     </g>
    </g>
    <g id="ytick_28">
     <g id="line2d_99">
      <path clip-path="url(#pdf1e84bea2)" d="M 144 230.660702 
L 1036.8 230.660702 
" style="fill:none;stroke:#808080;stroke-dasharray:2.96,1.28;stroke-dashoffset:0;stroke-width:0.8;"/>
     </g>
     <g id="line2d_100">
      <g>
       <use style="stroke:#000000;stroke-width:0.6;" x="144" xlink:href="#me13ae90699" y="230.660702"/>
      </g>
     </g>
    </g>
    <g id="ytick_29">
     <g id="line2d_101">
      <path clip-path="url(#pdf1e84bea2)" d="M 144 214.804393 
L 1036.8 214.804393 
" style="fill:none;stroke:#808080;stroke-dasharray:2.96,1.28;stroke-dashoffset:0;stroke-width:0.8;"/>
     </g>
     <g id="line2d_102">
      <g>
       <use style="stroke:#000000;stroke-width:0.6;" x="144" xlink:href="#me13ae90699" y="214.804393"/>
      </g>
     </g>
    </g>
    <g id="ytick_30">
     <g id="line2d_103">
      <path clip-path="url(#pdf1e84bea2)" d="M 144 198.948084 
L 1036.8 198.948084 
" style="fill:none;stroke:#808080;stroke-dasharray:2.96,1.28;stroke-dashoffset:0;stroke-width:0.8;"/>
     </g>
     <g id="line2d_104">
      <g>
       <use style="stroke:#000000;stroke-width:0.6;" x="144" xlink:href="#me13ae90699" y="198.948084"/>
      </g>
     </g>
    </g>
    <g id="ytick_31">
     <g id="line2d_105">
      <path clip-path="url(#pdf1e84bea2)" d="M 144 183.091774 
L 1036.8 183.091774 
" style="fill:none;stroke:#808080;stroke-dasharray:2.96,1.28;stroke-dashoffset:0;stroke-width:0.8;"/>
     </g>
     <g id="line2d_106">
      <g>
       <use style="stroke:#000000;stroke-width:0.6;" x="144" xlink:href="#me13ae90699" y="183.091774"/>
      </g>
     </g>
    </g>
    <g id="ytick_32">
     <g id="line2d_107">
      <path clip-path="url(#pdf1e84bea2)" d="M 144 151.379156 
L 1036.8 151.379156 
" style="fill:none;stroke:#808080;stroke-dasharray:2.96,1.28;stroke-dashoffset:0;stroke-width:0.8;"/>
     </g>
     <g id="line2d_108">
      <g>
       <use style="stroke:#000000;stroke-width:0.6;" x="144" xlink:href="#me13ae90699" y="151.379156"/>
      </g>
     </g>
    </g>
    <g id="ytick_33">
     <g id="line2d_109">
      <path clip-path="url(#pdf1e84bea2)" d="M 144 135.522846 
L 1036.8 135.522846 
" style="fill:none;stroke:#808080;stroke-dasharray:2.96,1.28;stroke-dashoffset:0;stroke-width:0.8;"/>
     </g>
     <g id="line2d_110">
      <g>
       <use style="stroke:#000000;stroke-width:0.6;" x="144" xlink:href="#me13ae90699" y="135.522846"/>
      </g>
     </g>
    </g>
    <g id="ytick_34">
     <g id="line2d_111">
      <path clip-path="url(#pdf1e84bea2)" d="M 144 119.666537 
L 1036.8 119.666537 
" style="fill:none;stroke:#808080;stroke-dasharray:2.96,1.28;stroke-dashoffset:0;stroke-width:0.8;"/>
     </g>
     <g id="line2d_112">
      <g>
       <use style="stroke:#000000;stroke-width:0.6;" x="144" xlink:href="#me13ae90699" y="119.666537"/>
      </g>
     </g>
    </g>
    <g id="ytick_35">
     <g id="line2d_113">
      <path clip-path="url(#pdf1e84bea2)" d="M 144 103.810228 
L 1036.8 103.810228 
" style="fill:none;stroke:#808080;stroke-dasharray:2.96,1.28;stroke-dashoffset:0;stroke-width:0.8;"/>
     </g>
     <g id="line2d_114">
      <g>
       <use style="stroke:#000000;stroke-width:0.6;" x="144" xlink:href="#me13ae90699" y="103.810228"/>
      </g>
     </g>
    </g>
    <g id="text_15">
     <!-- Напряжение $U$, В -->
     <g transform="translate(112.896875 454.3)rotate(-90)scale(0.2 -0.2)">
      <defs>
       <path d="M 628 4666 
L 1259 4666 
L 1259 2753 
L 3553 2753 
L 3553 4666 
L 4184 4666 
L 4184 0 
L 3553 0 
L 3553 2222 
L 1259 2222 
L 1259 0 
L 628 0 
L 628 4666 
z
" id="DejaVuSans-41d" transform="scale(0.015625)"/>
       <path d="M 2194 1759 
Q 1497 1759 1228 1600 
Q 959 1441 959 1056 
Q 959 750 1161 570 
Q 1363 391 1709 391 
Q 2188 391 2477 730 
Q 2766 1069 2766 1631 
L 2766 1759 
L 2194 1759 
z
M 3341 1997 
L 3341 0 
L 2766 0 
L 2766 531 
Q 2569 213 2275 61 
Q 1981 -91 1556 -91 
Q 1019 -91 701 211 
Q 384 513 384 1019 
Q 384 1609 779 1909 
Q 1175 2209 1959 2209 
L 2766 2209 
L 2766 2266 
Q 2766 2663 2505 2880 
Q 2244 3097 1772 3097 
Q 1472 3097 1187 3025 
Q 903 2953 641 2809 
L 641 3341 
Q 956 3463 1253 3523 
Q 1550 3584 1831 3584 
Q 2591 3584 2966 3190 
Q 3341 2797 3341 1997 
z
" id="DejaVuSans-430" transform="scale(0.015625)"/>
       <path d="M 3603 3500 
L 3603 0 
L 3025 0 
L 3025 3041 
L 1159 3041 
L 1159 0 
L 581 0 
L 581 3500 
L 3603 3500 
z
" id="DejaVuSans-43f" transform="scale(0.015625)"/>
       <path d="M 2597 3500 
L 3169 3500 
L 3169 1856 
L 4697 3500 
L 5366 3500 
L 4109 2153 
L 5547 0 
L 4931 0 
L 3753 1769 
L 3169 1141 
L 3169 0 
L 2597 0 
L 2597 1141 
L 2013 1769 
L 834 0 
L 219 0 
L 1656 2153 
L 400 3500 
L 1069 3500 
L 2597 1856 
L 2597 3500 
z
" id="DejaVuSans-436" transform="scale(0.015625)"/>
       <path d="M 581 3500 
L 1159 3500 
L 1159 2072 
L 3025 2072 
L 3025 3500 
L 3603 3500 
L 3603 0 
L 3025 0 
L 3025 1613 
L 1159 1613 
L 1159 0 
L 581 0 
L 581 3500 
z
" id="DejaVuSans-43d" transform="scale(0.015625)"/>
       <path d="M 3578 3500 
L 3578 0 
L 3006 0 
L 3006 2809 
L 1319 0 
L 581 0 
L 581 3500 
L 1153 3500 
L 1153 697 
L 2838 3500 
L 3578 3500 
z
" id="DejaVuSans-438" transform="scale(0.015625)"/>
       <path d="M 991 4666 
L 1625 4666 
L 1075 1831 
Q 1041 1641 1027 1517 
Q 1013 1394 1013 1300 
Q 1013 869 1253 645 
Q 1494 422 1959 422 
Q 2563 422 2898 753 
Q 3234 1084 3378 1831 
L 3928 4666 
L 4563 4666 
L 4000 1753 
Q 3816 809 3300 359 
Q 2784 -91 1888 -91 
Q 1188 -91 780 261 
Q 372 613 372 1216 
Q 372 1325 387 1461 
Q 403 1597 434 1753 
L 991 4666 
z
" id="DejaVuSans-Oblique-55" transform="scale(0.015625)"/>
      </defs>
      <use transform="translate(0 0.09375)" xlink:href="#DejaVuSans-41d"/>
      <use transform="translate(75.195312 0.09375)" xlink:href="#DejaVuSans-430"/>
      <use transform="translate(136.474609 0.09375)" xlink:href="#DejaVuSans-43f"/>
      <use transform="translate(201.855469 0.09375)" xlink:href="#DejaVuSans-440"/>
      <use transform="translate(265.332031 0.09375)" xlink:href="#DejaVuSans-44f"/>
      <use transform="translate(325.488281 0.09375)" xlink:href="#DejaVuSans-436"/>
      <use transform="translate(415.576172 0.09375)" xlink:href="#DejaVuSans-435"/>
      <use transform="translate(477.099609 0.09375)" xlink:href="#DejaVuSans-43d"/>
      <use transform="translate(542.480469 0.09375)" xlink:href="#DejaVuSans-438"/>
      <use transform="translate(607.470703 0.09375)" xlink:href="#DejaVuSans-435"/>
      <use transform="translate(668.994141 0.09375)" xlink:href="#DejaVuSans-20"/>
      <use transform="translate(700.78125 0.09375)" xlink:href="#DejaVuSans-Oblique-55"/>
      <use transform="translate(773.974609 0.09375)" xlink:href="#DejaVuSans-2c"/>
      <use transform="translate(805.761719 0.09375)" xlink:href="#DejaVuSans-20"/>
      <use transform="translate(837.548828 0.09375)" xlink:href="#DejaVuSans-412"/>
     </g>
    </g>
   </g>
   <g id="line2d_115">
    <path clip-path="url(#pdf1e84bea2)" d="M 144 640.8 
L 144.903727 632.301018 
L 147.614908 619.552545 
L 148.518634 611.053564 
L 150.326088 602.554582 
L 151.229815 594.0556 
L 152.133542 594.0556 
L 153.037269 585.556618 
L 153.940996 585.556618 
L 154.844723 577.057636 
L 155.748449 577.057636 
L 156.652176 564.309164 
L 168.400626 509.065782 
L 169.304353 509.065782 
L 170.20808 500.5668 
L 173.822987 483.568837 
L 174.726714 483.568837 
L 175.630441 475.069855 
L 176.534168 475.069855 
L 183.763983 441.073927 
L 184.66771 441.073927 
L 188.282617 424.075964 
L 189.186344 424.075964 
L 192.801251 407.078 
L 193.704978 407.078 
L 195.512432 398.579018 
L 196.416159 398.579018 
L 198.223613 390.080037 
L 199.12734 390.080037 
L 200.934793 381.581055 
L 201.83852 381.581055 
L 203.645974 373.082073 
L 205.453428 373.082073 
L 206.357155 364.583091 
L 207.260882 364.583091 
L 208.164608 360.3336 
L 209.068335 360.3336 
L 210.875789 351.834618 
L 211.779516 351.834618 
L 212.683243 347.585128 
L 213.58697 347.585128 
L 215.394423 339.086146 
L 217.201877 339.086146 
L 219.009331 330.587164 
L 220.816785 330.587164 
L 222.624239 322.088182 
L 223.527965 322.088182 
L 224.431692 317.838691 
L 225.335419 317.838691 
L 226.239146 313.5892 
L 227.142873 313.5892 
L 228.0466 309.339709 
L 228.950327 309.339709 
L 229.854054 305.090219 
L 232.565234 305.090219 
L 233.468961 296.591237 
L 235.276415 296.591237 
L 236.180142 292.341746 
L 237.083869 292.341746 
L 237.987595 288.092255 
L 239.795049 288.092255 
L 240.698776 283.842764 
L 241.602503 283.842764 
L 242.50623 279.593273 
L 243.409957 279.593273 
L 244.313684 275.343782 
L 247.024864 275.343782 
L 248.832318 266.8448 
L 250.639772 266.8448 
L 251.543499 262.595309 
L 253.350952 262.595309 
L 254.254679 258.345819 
L 255.158406 258.345819 
L 256.062133 254.096328 
L 258.773314 254.096328 
L 259.677041 249.846837 
L 260.580767 249.846837 
L 261.484494 245.597346 
L 263.291948 245.597346 
L 264.195675 241.347855 
L 266.906856 241.347855 
L 268.714309 232.848873 
L 274.136671 232.848873 
L 275.944124 224.349891 
L 279.559032 224.349891 
L 280.462759 220.1004 
L 283.173939 220.1004 
L 284.077666 215.85091 
L 285.88512 215.85091 
L 286.788847 211.601419 
L 288.596301 211.601419 
L 289.500028 207.351928 
L 293.114935 207.351928 
L 294.018662 203.102437 
L 297.63357 203.102437 
L 298.537296 198.852946 
L 302.152204 198.852946 
L 303.055931 194.603455 
L 306.670838 194.603455 
L 307.574565 190.353964 
L 309.382019 190.353964 
L 310.285746 186.104473 
L 311.189473 190.353964 
L 312.0932 186.104473 
L 314.80438 186.104473 
L 315.708107 181.854982 
L 322.034195 181.854982 
L 322.937922 177.605491 
L 327.456557 177.605491 
L 328.360283 173.356 
L 332.878918 173.356 
L 333.782645 169.10651 
L 337.397552 169.10651 
L 338.301279 164.857019 
L 348.242275 164.857019 
L 349.146002 160.607528 
L 356.375817 160.607528 
L 357.279544 156.358037 
L 358.18327 160.607528 
L 359.086997 156.358037 
L 363.605632 156.358037 
L 364.509359 152.108546 
L 365.413085 156.358037 
L 366.316812 152.108546 
L 374.450354 152.108546 
L 375.354081 147.859055 
L 383.487623 147.859055 
L 384.39135 143.609564 
L 392.524892 143.609564 
L 393.428619 139.360073 
L 394.332346 143.609564 
L 395.236073 143.609564 
L 396.139799 139.360073 
L 404.273341 139.360073 
L 405.177068 135.110582 
L 406.080795 139.360073 
L 406.984522 139.360073 
L 407.888249 135.110582 
L 408.791976 139.360073 
L 409.695703 139.360073 
L 410.599429 135.110582 
L 417.829245 135.110582 
L 418.732971 130.861091 
L 419.636698 135.110582 
L 420.540425 135.110582 
L 421.444152 130.861091 
L 422.347879 130.861091 
L 423.251606 135.110582 
L 425.962786 135.110582 
L 426.866513 130.861091 
L 444.037324 130.861091 
L 444.941051 126.611601 
L 445.844778 130.861091 
L 446.748505 126.611601 
L 466.630496 126.611601 
L 467.534223 122.36211 
L 468.43795 122.36211 
L 469.341677 126.611601 
L 470.245404 126.611601 
L 471.14913 122.36211 
L 472.052857 122.36211 
L 472.956584 126.611601 
L 473.860311 122.36211 
L 489.223668 122.36211 
L 490.127395 118.112619 
L 491.031122 126.611601 
L 491.934849 130.861091 
L 492.838576 130.861091 
L 493.742302 139.360073 
L 495.549756 147.859055 
L 496.453483 156.358037 
L 497.35721 156.358037 
L 498.260937 164.857019 
L 499.164664 164.857019 
L 500.068391 173.356 
L 501.875844 181.854982 
L 502.779571 181.854982 
L 503.683298 190.353964 
L 504.587025 190.353964 
L 513.624294 232.848873 
L 514.528021 232.848873 
L 519.046655 254.096328 
L 519.950382 254.096328 
L 520.854109 262.595309 
L 521.757836 262.595309 
L 522.661563 266.8448 
L 523.565289 266.8448 
L 528.083924 288.092255 
L 528.987651 288.092255 
L 532.602558 305.090219 
L 533.506285 305.090219 
L 535.313739 313.5892 
L 536.217466 313.5892 
L 537.121193 317.838691 
L 538.024919 317.838691 
L 540.7361 330.587164 
L 541.639827 330.587164 
L 542.543554 334.836655 
L 543.447281 334.836655 
L 545.254735 343.335637 
L 546.158461 343.335637 
L 547.965915 351.834618 
L 548.869642 351.834618 
L 549.773369 356.084109 
L 550.677096 356.084109 
L 551.580823 360.3336 
L 552.48455 360.3336 
L 553.388276 364.583091 
L 554.292003 364.583091 
L 555.19573 368.832582 
L 556.099457 368.832582 
L 557.003184 373.082073 
L 557.906911 373.082073 
L 558.810638 377.331564 
L 559.714365 377.331564 
L 561.521818 385.830546 
L 563.329272 385.830546 
L 564.232999 390.080037 
L 565.136726 390.080037 
L 566.040453 394.329528 
L 566.94418 394.329528 
L 568.751633 402.828509 
L 570.559087 402.828509 
L 571.462814 407.078 
L 572.366541 407.078 
L 573.270268 411.327491 
L 574.173995 411.327491 
L 575.077722 415.576982 
L 575.981448 415.576982 
L 576.885175 419.826473 
L 578.692629 419.826473 
L 579.596356 424.075964 
L 580.500083 424.075964 
L 581.40381 428.325455 
L 582.307537 428.325455 
L 583.211263 432.574946 
L 584.11499 432.574946 
L 585.018717 436.824437 
L 587.729898 436.824437 
L 589.537352 445.323418 
L 591.344805 445.323418 
L 592.248532 449.572909 
L 593.152259 449.572909 
L 594.055986 453.8224 
L 596.767167 453.8224 
L 597.670894 458.071891 
L 598.57462 458.071891 
L 599.478347 462.321382 
L 601.285801 462.321382 
L 602.189528 466.570873 
L 603.093255 466.570873 
L 603.996982 470.820364 
L 605.804435 470.820364 
L 606.708162 475.069855 
L 609.419343 475.069855 
L 610.32307 479.319346 
L 612.130524 479.319346 
L 613.03425 483.568837 
L 614.841704 483.568837 
L 615.745431 487.818327 
L 618.456612 487.818327 
L 619.360339 492.067818 
L 620.264066 492.067818 
L 621.167792 496.317309 
L 623.878973 496.317309 
L 624.7827 500.5668 
L 626.590154 500.5668 
L 627.493881 504.816291 
L 628.397607 504.816291 
L 629.301334 509.065782 
L 634.723696 509.065782 
L 635.627422 513.315273 
L 637.434876 513.315273 
L 638.338603 517.564764 
L 640.146057 517.564764 
L 641.049784 521.814255 
L 644.664691 521.814255 
L 645.568418 526.063746 
L 648.279599 526.063746 
L 649.183326 530.313236 
L 650.990779 530.313236 
L 651.894506 534.562727 
L 655.509414 534.562727 
L 656.413141 538.812218 
L 660.028048 538.812218 
L 660.931775 543.061709 
L 661.835502 538.812218 
L 662.739229 543.061709 
L 664.546683 543.061709 
L 665.450409 547.3112 
L 669.065317 547.3112 
L 669.969044 551.560691 
L 673.583951 551.560691 
L 674.487678 555.810182 
L 678.102586 555.810182 
L 679.006313 560.059673 
L 684.428674 560.059673 
L 685.332401 564.309164 
L 688.947308 564.309164 
L 689.851035 568.558655 
L 693.465943 568.558655 
L 694.36967 572.808146 
L 695.273397 568.558655 
L 696.177123 572.808146 
L 698.888304 572.808146 
L 699.792031 577.057636 
L 708.8293 577.057636 
L 709.733027 581.307127 
L 716.059115 581.307127 
L 716.962842 585.556618 
L 721.481476 585.556618 
L 722.385203 589.806109 
L 730.518745 589.806109 
L 731.422472 594.0556 
L 740.45974 594.0556 
L 741.363467 598.305091 
L 748.593282 598.305091 
L 749.497009 602.554582 
L 750.400736 598.305091 
L 751.304463 602.554582 
L 761.245459 602.554582 
L 762.149186 606.804073 
L 770.282728 606.804073 
L 771.186454 611.053564 
L 785.646084 611.053564 
L 786.549811 615.303055 
L 801.009441 615.303055 
L 801.913168 619.552545 
L 802.816895 615.303055 
L 803.720622 619.552545 
L 818.180252 619.552545 
L 819.083979 623.802036 
L 838.062243 623.802036 
L 838.96597 628.051527 
L 839.869697 623.802036 
L 842.580878 623.802036 
L 843.484605 628.051527 
L 844.388332 628.051527 
L 845.292059 623.802036 
L 846.195785 628.051527 
L 864.270323 628.051527 
L 865.17405 632.301018 
L 866.077777 628.051527 
L 873.307592 628.051527 
L 874.211319 632.301018 
L 876.018772 632.301018 
L 876.922499 628.051527 
L 877.826226 632.301018 
L 902.226852 632.301018 
L 903.130579 636.550509 
L 904.034306 632.301018 
L 905.841759 632.301018 
L 906.745486 636.550509 
L 953.739284 636.550509 
L 954.643011 640.8 
L 954.643011 640.8 
" style="fill:none;stroke:#0000ff;stroke-linecap:square;"/>
   </g>
   <g id="patch_3">
    <path d="M 144 640.8 
L 144 86.4 
" style="fill:none;stroke:#000000;stroke-linecap:square;stroke-linejoin:miter;stroke-width:0.8;"/>
   </g>
   <g id="patch_4">
    <path d="M 1036.8 640.8 
L 1036.8 86.4 
" style="fill:none;stroke:#000000;stroke-linecap:square;stroke-linejoin:miter;stroke-width:0.8;"/>
   </g>
   <g id="patch_5">
    <path d="M 144 640.8 
L 1036.8 640.8 
" style="fill:none;stroke:#000000;stroke-linecap:square;stroke-linejoin:miter;stroke-width:0.8;"/>
   </g>
   <g id="patch_6">
    <path d="M 144 86.4 
L 1036.8 86.4 
" style="fill:none;stroke:#000000;stroke-linecap:square;stroke-linejoin:miter;stroke-width:0.8;"/>
   </g>
   <g id="text_16">
    <!-- Время зарядки:  4.213 -->
    <g transform="translate(719.098923 325.798559)scale(0.2 -0.2)">
     <defs>
      <path d="M 2206 1888 
Q 2594 1813 2809 1584 
Q 3025 1356 3025 1019 
Q 3025 478 2622 193 
Q 2219 -91 1475 -91 
Q 1225 -91 961 -47 
Q 697 -3 416 84 
L 416 619 
Q 638 503 903 445 
Q 1169 388 1459 388 
Q 1931 388 2195 563 
Q 2459 738 2459 1019 
Q 2459 1294 2225 1461 
Q 1991 1628 1563 1628 
L 1100 1628 
L 1100 2103 
L 1584 2103 
Q 1947 2103 2158 2242 
Q 2369 2381 2369 2600 
Q 2369 2800 2151 2944 
Q 1934 3088 1563 3088 
Q 1341 3088 1089 3047 
Q 838 3006 534 2916 
L 534 3438 
Q 841 3513 1106 3550 
Q 1372 3588 1609 3588 
Q 2222 3588 2576 3342 
Q 2931 3097 2931 2656 
Q 2931 2366 2743 2164 
Q 2556 1963 2206 1888 
z
" id="DejaVuSans-437" transform="scale(0.015625)"/>
      <path d="M 1384 459 
L 3053 459 
L 3053 3041 
L 1844 3041 
L 1844 2603 
Q 1844 1316 1475 628 
L 1384 459 
z
M 550 459 
Q 834 584 959 850 
Q 1266 1509 1266 2838 
L 1266 3500 
L 3631 3500 
L 3631 459 
L 4091 459 
L 4091 -884 
L 3631 -884 
L 3631 0 
L 794 0 
L 794 -884 
L 334 -884 
L 334 459 
L 550 459 
z
" id="DejaVuSans-434" transform="scale(0.015625)"/>
      <path d="M 581 3500 
L 1153 3500 
L 1153 1856 
L 2775 3500 
L 3481 3500 
L 2144 2147 
L 3653 0 
L 3009 0 
L 1769 1766 
L 1153 1141 
L 1153 0 
L 581 0 
L 581 3500 
z
" id="DejaVuSans-43a" transform="scale(0.015625)"/>
      <path d="M 750 794 
L 1409 794 
L 1409 0 
L 750 0 
L 750 794 
z
M 750 3309 
L 1409 3309 
L 1409 2516 
L 750 2516 
L 750 3309 
z
" id="DejaVuSans-3a" transform="scale(0.015625)"/>
     </defs>
     <use xlink:href="#DejaVuSans-412"/>
     <use x="68.603516" xlink:href="#DejaVuSans-440"/>
     <use x="132.080078" xlink:href="#DejaVuSans-435"/>
     <use x="193.603516" xlink:href="#DejaVuSans-43c"/>
     <use x="269.042969" xlink:href="#DejaVuSans-44f"/>
     <use x="329.199219" xlink:href="#DejaVuSans-20"/>
     <use x="360.986328" xlink:href="#DejaVuSans-437"/>
     <use x="414.160156" xlink:href="#DejaVuSans-430"/>
     <use x="475.439453" xlink:href="#DejaVuSans-440"/>
     <use x="538.916016" xlink:href="#DejaVuSans-44f"/>
     <use x="599.072266" xlink:href="#DejaVuSans-434"/>
     <use x="668.212891" xlink:href="#DejaVuSans-43a"/>
     <use x="728.613281" xlink:href="#DejaVuSans-438"/>
     <use x="793.603516" xlink:href="#DejaVuSans-3a"/>
     <use x="827.294922" xlink:href="#DejaVuSans-20"/>
     <use x="859.082031" xlink:href="#DejaVuSans-20"/>
     <use x="890.869141" xlink:href="#DejaVuSans-34"/>
     <use x="954.492188" xlink:href="#DejaVuSans-2e"/>
     <use x="986.279297" xlink:href="#DejaVuSans-32"/>
     <use x="1049.902344" xlink:href="#DejaVuSans-31"/>
     <use x="1113.525391" xlink:href="#DejaVuSans-33"/>
    </g>
   </g>
   <g id="text_17">
    <!-- Время разрядки: 5.654 -->
    <g transform="translate(719.098923 405.080105)scale(0.2 -0.2)">
     <use xlink:href="#DejaVuSans-412"/>
     <use x="68.603516" xlink:href="#DejaVuSans-440"/>
     <use x="132.080078" xlink:href="#DejaVuSans-435"/>
     <use x="193.603516" xlink:href="#DejaVuSans-43c"/>
     <use x="269.042969" xlink:href="#DejaVuSans-44f"/>
     <use x="329.199219" xlink:href="#DejaVuSans-20"/>
     <use x="360.986328" xlink:href="#DejaVuSans-440"/>
     <use x="424.462891" xlink:href="#DejaVuSans-430"/>
     <use x="485.742188" xlink:href="#DejaVuSans-437"/>
     <use x="538.916016" xlink:href="#DejaVuSans-440"/>
     <use x="602.392578" xlink:href="#DejaVuSans-44f"/>
     <use x="662.548828" xlink:href="#DejaVuSans-434"/>
     <use x="731.689453" xlink:href="#DejaVuSans-43a"/>
     <use x="792.089844" xlink:href="#DejaVuSans-438"/>
     <use x="857.080078" xlink:href="#DejaVuSans-3a"/>
     <use x="890.771484" xlink:href="#DejaVuSans-20"/>
     <use x="922.558594" xlink:href="#DejaVuSans-35"/>
     <use x="986.181641" xlink:href="#DejaVuSans-2e"/>
     <use x="1017.96875" xlink:href="#DejaVuSans-36"/>
     <use x="1081.591797" xlink:href="#DejaVuSans-35"/>
     <use x="1145.214844" xlink:href="#DejaVuSans-34"/>
    </g>
   </g>
   <g id="text_18">
    <!-- Процесс заряда и разряда конденсатора в RC-цепочке -->
    <g transform="translate(299.839062 80.4)scale(0.2 -0.2)">
     <defs>
      <path d="M 4184 4666 
L 4184 0 
L 3553 0 
L 3553 4134 
L 1259 4134 
L 1259 0 
L 628 0 
L 628 4666 
L 4184 4666 
z
" id="DejaVuSans-41f" transform="scale(0.015625)"/>
      <path d="M 1959 3097 
Q 1497 3097 1228 2736 
Q 959 2375 959 1747 
Q 959 1119 1226 758 
Q 1494 397 1959 397 
Q 2419 397 2687 759 
Q 2956 1122 2956 1747 
Q 2956 2369 2687 2733 
Q 2419 3097 1959 3097 
z
M 1959 3584 
Q 2709 3584 3137 3096 
Q 3566 2609 3566 1747 
Q 3566 888 3137 398 
Q 2709 -91 1959 -91 
Q 1206 -91 779 398 
Q 353 888 353 1747 
Q 353 2609 779 3096 
Q 1206 3584 1959 3584 
z
" id="DejaVuSans-43e" transform="scale(0.015625)"/>
      <path d="M 3603 0 
L 581 0 
L 581 3500 
L 1159 3500 
L 1159 459 
L 3025 459 
L 3025 3500 
L 3603 3500 
L 3603 459 
L 4063 459 
L 4063 -884 
L 3603 -884 
L 3603 0 
z
" id="DejaVuSans-446" transform="scale(0.015625)"/>
      <path d="M 188 3500 
L 3541 3500 
L 3541 3041 
L 2147 3041 
L 2147 0 
L 1581 0 
L 1581 3041 
L 188 3041 
L 188 3500 
z
" id="DejaVuSans-442" transform="scale(0.015625)"/>
      <path d="M 1156 1613 
L 1156 459 
L 1975 459 
Q 2369 459 2575 607 
Q 2781 756 2781 1038 
Q 2781 1319 2575 1466 
Q 2369 1613 1975 1613 
L 1156 1613 
z
M 1156 3041 
L 1156 2072 
L 1913 2072 
Q 2238 2072 2444 2201 
Q 2650 2331 2650 2563 
Q 2650 2794 2444 2917 
Q 2238 3041 1913 3041 
L 1156 3041 
z
M 581 3500 
L 1950 3500 
Q 2566 3500 2897 3275 
Q 3228 3050 3228 2634 
Q 3228 2313 3059 2123 
Q 2891 1934 2559 1888 
Q 2956 1813 3175 1575 
Q 3394 1338 3394 981 
Q 3394 513 3033 256 
Q 2672 0 2003 0 
L 581 0 
L 581 3500 
z
" id="DejaVuSans-432" transform="scale(0.015625)"/>
      <path d="M 2841 2188 
Q 3044 2119 3236 1894 
Q 3428 1669 3622 1275 
L 4263 0 
L 3584 0 
L 2988 1197 
Q 2756 1666 2539 1819 
Q 2322 1972 1947 1972 
L 1259 1972 
L 1259 0 
L 628 0 
L 628 4666 
L 2053 4666 
Q 2853 4666 3247 4331 
Q 3641 3997 3641 3322 
Q 3641 2881 3436 2590 
Q 3231 2300 2841 2188 
z
M 1259 4147 
L 1259 2491 
L 2053 2491 
Q 2509 2491 2742 2702 
Q 2975 2913 2975 3322 
Q 2975 3731 2742 3939 
Q 2509 4147 2053 4147 
L 1259 4147 
z
" id="DejaVuSans-52" transform="scale(0.015625)"/>
      <path d="M 4122 4306 
L 4122 3641 
Q 3803 3938 3442 4084 
Q 3081 4231 2675 4231 
Q 1875 4231 1450 3742 
Q 1025 3253 1025 2328 
Q 1025 1406 1450 917 
Q 1875 428 2675 428 
Q 3081 428 3442 575 
Q 3803 722 4122 1019 
L 4122 359 
Q 3791 134 3420 21 
Q 3050 -91 2638 -91 
Q 1578 -91 968 557 
Q 359 1206 359 2328 
Q 359 3453 968 4101 
Q 1578 4750 2638 4750 
Q 3056 4750 3426 4639 
Q 3797 4528 4122 4306 
z
" id="DejaVuSans-43" transform="scale(0.015625)"/>
      <path d="M 313 2009 
L 1997 2009 
L 1997 1497 
L 313 1497 
L 313 2009 
z
" id="DejaVuSans-2d" transform="scale(0.015625)"/>
      <path d="M 2625 0 
L 2625 1472 
L 1553 1472 
Q 1075 1472 756 1769 
Q 469 2038 469 2613 
L 469 3500 
L 1044 3500 
L 1044 2666 
Q 1044 2300 1206 2116 
Q 1372 1931 1697 1931 
L 2625 1931 
L 2625 3500 
L 3200 3500 
L 3200 0 
L 2625 0 
z
" id="DejaVuSans-447" transform="scale(0.015625)"/>
     </defs>
     <use xlink:href="#DejaVuSans-41f"/>
     <use x="75.195312" xlink:href="#DejaVuSans-440"/>
     <use x="138.671875" xlink:href="#DejaVuSans-43e"/>
     <use x="199.853516" xlink:href="#DejaVuSans-446"/>
     <use x="267.919922" xlink:href="#DejaVuSans-435"/>
     <use x="329.443359" xlink:href="#DejaVuSans-441"/>
     <use x="384.423828" xlink:href="#DejaVuSans-441"/>
     <use x="439.404297" xlink:href="#DejaVuSans-20"/>
     <use x="471.191406" xlink:href="#DejaVuSans-437"/>
     <use x="524.365234" xlink:href="#DejaVuSans-430"/>
     <use x="585.644531" xlink:href="#DejaVuSans-440"/>
     <use x="649.121094" xlink:href="#DejaVuSans-44f"/>
     <use x="709.277344" xlink:href="#DejaVuSans-434"/>
     <use x="778.417969" xlink:href="#DejaVuSans-430"/>
     <use x="839.697266" xlink:href="#DejaVuSans-20"/>
     <use x="871.484375" xlink:href="#DejaVuSans-438"/>
     <use x="936.474609" xlink:href="#DejaVuSans-20"/>
     <use x="968.261719" xlink:href="#DejaVuSans-440"/>
     <use x="1031.738281" xlink:href="#DejaVuSans-430"/>
     <use x="1093.017578" xlink:href="#DejaVuSans-437"/>
     <use x="1146.191406" xlink:href="#DejaVuSans-440"/>
     <use x="1209.667969" xlink:href="#DejaVuSans-44f"/>
     <use x="1269.824219" xlink:href="#DejaVuSans-434"/>
     <use x="1338.964844" xlink:href="#DejaVuSans-430"/>
     <use x="1400.244141" xlink:href="#DejaVuSans-20"/>
     <use x="1432.03125" xlink:href="#DejaVuSans-43a"/>
     <use x="1492.431641" xlink:href="#DejaVuSans-43e"/>
     <use x="1553.613281" xlink:href="#DejaVuSans-43d"/>
     <use x="1618.994141" xlink:href="#DejaVuSans-434"/>
     <use x="1688.134766" xlink:href="#DejaVuSans-435"/>
     <use x="1749.658203" xlink:href="#DejaVuSans-43d"/>
     <use x="1815.039062" xlink:href="#DejaVuSans-441"/>
     <use x="1870.019531" xlink:href="#DejaVuSans-430"/>
     <use x="1931.298828" xlink:href="#DejaVuSans-442"/>
     <use x="1989.550781" xlink:href="#DejaVuSans-43e"/>
     <use x="2050.732422" xlink:href="#DejaVuSans-440"/>
     <use x="2114.208984" xlink:href="#DejaVuSans-430"/>
     <use x="2175.488281" xlink:href="#DejaVuSans-20"/>
     <use x="2207.275391" xlink:href="#DejaVuSans-432"/>
     <use x="2266.210938" xlink:href="#DejaVuSans-20"/>
     <use x="2297.998047" xlink:href="#DejaVuSans-52"/>
     <use x="2362.480469" xlink:href="#DejaVuSans-43"/>
     <use x="2432.304688" xlink:href="#DejaVuSans-2d"/>
     <use x="2468.388672" xlink:href="#DejaVuSans-446"/>
     <use x="2536.455078" xlink:href="#DejaVuSans-435"/>
     <use x="2597.978516" xlink:href="#DejaVuSans-43f"/>
     <use x="2663.359375" xlink:href="#DejaVuSans-43e"/>
     <use x="2724.541016" xlink:href="#DejaVuSans-447"/>
     <use x="2783.623047" xlink:href="#DejaVuSans-43a"/>
     <use x="2844.023438" xlink:href="#DejaVuSans-435"/>
    </g>
   </g>
   <g id="legend_1">
    <g id="patch_7">
     <path d="M 916.4 131.75625 
L 1022.8 131.75625 
Q 1026.8 131.75625 1026.8 127.75625 
L 1026.8 100.4 
Q 1026.8 96.4 1022.8 96.4 
L 916.4 96.4 
Q 912.4 96.4 912.4 100.4 
L 912.4 127.75625 
Q 912.4 131.75625 916.4 131.75625 
z
" style="fill:#ffffff;opacity:0.8;stroke:#cccccc;stroke-linejoin:miter;"/>
    </g>
    <g id="line2d_116">
     <path d="M 920.4 112.596875 
L 960.4 112.596875 
" style="fill:none;stroke:#0000ff;stroke-linecap:square;"/>
    </g>
    <g id="line2d_117"/>
    <g id="text_19">
     <!-- $U(\tau)$ -->
     <g transform="translate(976.4 119.596875)scale(0.2 -0.2)">
      <defs>
       <path d="M 1984 4856 
Q 1566 4138 1362 3434 
Q 1159 2731 1159 2009 
Q 1159 1288 1364 580 
Q 1569 -128 1984 -844 
L 1484 -844 
Q 1016 -109 783 600 
Q 550 1309 550 2009 
Q 550 2706 781 3412 
Q 1013 4119 1484 4856 
L 1984 4856 
z
" id="DejaVuSans-28" transform="scale(0.015625)"/>
       <path d="M 513 4856 
L 1013 4856 
Q 1481 4119 1714 3412 
Q 1947 2706 1947 2009 
Q 1947 1309 1714 600 
Q 1481 -109 1013 -844 
L 513 -844 
Q 928 -128 1133 580 
Q 1338 1288 1338 2009 
Q 1338 2731 1133 3434 
Q 928 4138 513 4856 
z
" id="DejaVuSans-29" transform="scale(0.015625)"/>
      </defs>
      <use transform="translate(0 0.125)" xlink:href="#DejaVuSans-Oblique-55"/>
      <use transform="translate(73.193359 0.125)" xlink:href="#DejaVuSans-28"/>
      <use transform="translate(112.207031 0.125)" xlink:href="#DejaVuSans-Oblique-3c4"/>
      <use transform="translate(172.412109 0.125)" xlink:href="#DejaVuSans-29"/>
     </g>
    </g>
   </g>
  </g>
 </g>
 <defs>
  <clipPath id="pdf1e84bea2">
   <rect height="554.4" width="892.8" x="144" y="86.4"/>
  </clipPath>
 </defs>
</svg>
