<?xml version="1.0" encoding="utf-8" standalone="no"?>
<!DOCTYPE svg PUBLIC "-//W3C//DTD SVG 1.1//EN"
  "http://www.w3.org/Graphics/SVG/1.1/DTD/svg11.dtd">
<svg height="720pt" version="1.1" viewBox="0 0 1152 720" width="1152pt" xmlns="http://www.w3.org/2000/svg" xmlns:xlink="http://www.w3.org/1999/xlink">
 <metadata>
  <rdf:RDF xmlns:cc="http://creativecommons.org/ns#" xmlns:dc="http://purl.org/dc/elements/1.1/" xmlns:rdf="http://www.w3.org/1999/02/22-rdf-syntax-ns#">
   <cc:Work>
    <dc:type rdf:resource="http://purl.org/dc/dcmitype/StillImage"/>
    <dc:date>2023-05-11T10:48:21.372800</dc:date>
    <dc:format>image/svg+xml</dc:format>
    <dc:creator>
     <cc:Agent>
      <dc:title>Matplotlib v3.4.3, https://matplotlib.org/</dc:title>
     </cc:Agent>
    </dc:creator>
   </cc:Work>
  </rdf:RDF>
 </metadata>
 <defs>
  <style type="text/css">*{stroke-linecap:butt;stroke-linejoin:round;}</style>
 </defs>
 <g id="figure_1">
  <g id="patch_1">
   <path d="M 0 720 
L 1152 720 
L 1152 0 
L 0 0 
z
" style="fill:#ffffff;"/>
  </g>
  <g id="axes_1">
   <g id="patch_2">
    <path d="M 144 640.8 
L 1036.8 640.8 
L 1036.8 86.4 
L 144 86.4 
z
" style="fill:#ffffff;"/>
   </g>
   <g id="matplotlib.axis_1">
    <g id="xtick_1">
     <g id="line2d_1">
      <path clip-path="url(#pdd62a0d932)" d="M 144 640.8 
L 144 86.4 
" style="fill:none;stroke:#000000;stroke-linecap:square;stroke-width:0.8;"/>
     </g>
     <g id="line2d_2">
      <defs>
       <path d="M 0 0 
L 0 3.5 
" id="m4ccb40941e" style="stroke:#000000;stroke-width:0.8;"/>
      </defs>
      <g>
       <use style="stroke:#000000;stroke-width:0.8;" x="144" xlink:href="#m4ccb40941e" y="640.8"/>
      </g>
     </g>
     <g id="text_1">
      <!-- 0 -->
      <g transform="translate(140.81875 655.398438)scale(0.1 -0.1)">
       <defs>
        <path d="M 2034 4250 
Q 1547 4250 1301 3770 
Q 1056 3291 1056 2328 
Q 1056 1369 1301 889 
Q 1547 409 2034 409 
Q 2525 409 2770 889 
Q 3016 1369 3016 2328 
Q 3016 3291 2770 3770 
Q 2525 4250 2034 4250 
z
M 2034 4750 
Q 2819 4750 3233 4129 
Q 3647 3509 3647 2328 
Q 3647 1150 3233 529 
Q 2819 -91 2034 -91 
Q 1250 -91 836 529 
Q 422 1150 422 2328 
Q 422 3509 836 4129 
Q 1250 4750 2034 4750 
z
" id="DejaVuSans-30" transform="scale(0.015625)"/>
       </defs>
       <use xlink:href="#DejaVuSans-30"/>
      </g>
     </g>
    </g>
    <g id="xtick_2">
     <g id="line2d_3">
      <path clip-path="url(#pdd62a0d932)" d="M 324.966859 640.8 
L 324.966859 86.4 
" style="fill:none;stroke:#000000;stroke-linecap:square;stroke-width:0.8;"/>
     </g>
     <g id="line2d_4">
      <g>
       <use style="stroke:#000000;stroke-width:0.8;" x="324.966859" xlink:href="#m4ccb40941e" y="640.8"/>
      </g>
     </g>
     <g id="text_2">
      <!-- 2 -->
      <g transform="translate(321.785609 655.398438)scale(0.1 -0.1)">
       <defs>
        <path d="M 1228 531 
L 3431 531 
L 3431 0 
L 469 0 
L 469 531 
Q 828 903 1448 1529 
Q 2069 2156 2228 2338 
Q 2531 2678 2651 2914 
Q 2772 3150 2772 3378 
Q 2772 3750 2511 3984 
Q 2250 4219 1831 4219 
Q 1534 4219 1204 4116 
Q 875 4013 500 3803 
L 500 4441 
Q 881 4594 1212 4672 
Q 1544 4750 1819 4750 
Q 2544 4750 2975 4387 
Q 3406 4025 3406 3419 
Q 3406 3131 3298 2873 
Q 3191 2616 2906 2266 
Q 2828 2175 2409 1742 
Q 1991 1309 1228 531 
z
" id="DejaVuSans-32" transform="scale(0.015625)"/>
       </defs>
       <use xlink:href="#DejaVuSans-32"/>
      </g>
     </g>
    </g>
    <g id="xtick_3">
     <g id="line2d_5">
      <path clip-path="url(#pdd62a0d932)" d="M 505.933718 640.8 
L 505.933718 86.4 
" style="fill:none;stroke:#000000;stroke-linecap:square;stroke-width:0.8;"/>
     </g>
     <g id="line2d_6">
      <g>
       <use style="stroke:#000000;stroke-width:0.8;" x="505.933718" xlink:href="#m4ccb40941e" y="640.8"/>
      </g>
     </g>
     <g id="text_3">
      <!-- 4 -->
      <g transform="translate(502.752468 655.398438)scale(0.1 -0.1)">
       <defs>
        <path d="M 2419 4116 
L 825 1625 
L 2419 1625 
L 2419 4116 
z
M 2253 4666 
L 3047 4666 
L 3047 1625 
L 3713 1625 
L 3713 1100 
L 3047 1100 
L 3047 0 
L 2419 0 
L 2419 1100 
L 313 1100 
L 313 1709 
L 2253 4666 
z
" id="DejaVuSans-34" transform="scale(0.015625)"/>
       </defs>
       <use xlink:href="#DejaVuSans-34"/>
      </g>
     </g>
    </g>
    <g id="xtick_4">
     <g id="line2d_7">
      <path clip-path="url(#pdd62a0d932)" d="M 686.900578 640.8 
L 686.900578 86.4 
" style="fill:none;stroke:#000000;stroke-linecap:square;stroke-width:0.8;"/>
     </g>
     <g id="line2d_8">
      <g>
       <use style="stroke:#000000;stroke-width:0.8;" x="686.900578" xlink:href="#m4ccb40941e" y="640.8"/>
      </g>
     </g>
     <g id="text_4">
      <!-- 6 -->
      <g transform="translate(683.719328 655.398438)scale(0.1 -0.1)">
       <defs>
        <path d="M 2113 2584 
Q 1688 2584 1439 2293 
Q 1191 2003 1191 1497 
Q 1191 994 1439 701 
Q 1688 409 2113 409 
Q 2538 409 2786 701 
Q 3034 994 3034 1497 
Q 3034 2003 2786 2293 
Q 2538 2584 2113 2584 
z
M 3366 4563 
L 3366 3988 
Q 3128 4100 2886 4159 
Q 2644 4219 2406 4219 
Q 1781 4219 1451 3797 
Q 1122 3375 1075 2522 
Q 1259 2794 1537 2939 
Q 1816 3084 2150 3084 
Q 2853 3084 3261 2657 
Q 3669 2231 3669 1497 
Q 3669 778 3244 343 
Q 2819 -91 2113 -91 
Q 1303 -91 875 529 
Q 447 1150 447 2328 
Q 447 3434 972 4092 
Q 1497 4750 2381 4750 
Q 2619 4750 2861 4703 
Q 3103 4656 3366 4563 
z
" id="DejaVuSans-36" transform="scale(0.015625)"/>
       </defs>
       <use xlink:href="#DejaVuSans-36"/>
      </g>
     </g>
    </g>
    <g id="xtick_5">
     <g id="line2d_9">
      <path clip-path="url(#pdd62a0d932)" d="M 867.867437 640.8 
L 867.867437 86.4 
" style="fill:none;stroke:#000000;stroke-linecap:square;stroke-width:0.8;"/>
     </g>
     <g id="line2d_10">
      <g>
       <use style="stroke:#000000;stroke-width:0.8;" x="867.867437" xlink:href="#m4ccb40941e" y="640.8"/>
      </g>
     </g>
     <g id="text_5">
      <!-- 8 -->
      <g transform="translate(864.686187 655.398438)scale(0.1 -0.1)">
       <defs>
        <path d="M 2034 2216 
Q 1584 2216 1326 1975 
Q 1069 1734 1069 1313 
Q 1069 891 1326 650 
Q 1584 409 2034 409 
Q 2484 409 2743 651 
Q 3003 894 3003 1313 
Q 3003 1734 2745 1975 
Q 2488 2216 2034 2216 
z
M 1403 2484 
Q 997 2584 770 2862 
Q 544 3141 544 3541 
Q 544 4100 942 4425 
Q 1341 4750 2034 4750 
Q 2731 4750 3128 4425 
Q 3525 4100 3525 3541 
Q 3525 3141 3298 2862 
Q 3072 2584 2669 2484 
Q 3125 2378 3379 2068 
Q 3634 1759 3634 1313 
Q 3634 634 3220 271 
Q 2806 -91 2034 -91 
Q 1263 -91 848 271 
Q 434 634 434 1313 
Q 434 1759 690 2068 
Q 947 2378 1403 2484 
z
M 1172 3481 
Q 1172 3119 1398 2916 
Q 1625 2713 2034 2713 
Q 2441 2713 2670 2916 
Q 2900 3119 2900 3481 
Q 2900 3844 2670 4047 
Q 2441 4250 2034 4250 
Q 1625 4250 1398 4047 
Q 1172 3844 1172 3481 
z
" id="DejaVuSans-38" transform="scale(0.015625)"/>
       </defs>
       <use xlink:href="#DejaVuSans-38"/>
      </g>
     </g>
    </g>
    <g id="xtick_6">
     <g id="line2d_11">
      <path clip-path="url(#pdd62a0d932)" d="M 189.241715 640.8 
L 189.241715 86.4 
" style="fill:none;stroke:#808080;stroke-dasharray:2.96,1.28;stroke-dashoffset:0;stroke-width:0.8;"/>
     </g>
     <g id="line2d_12">
      <defs>
       <path d="M 0 0 
L 0 2 
" id="mb18885b96b" style="stroke:#000000;stroke-width:0.6;"/>
      </defs>
      <g>
       <use style="stroke:#000000;stroke-width:0.6;" x="189.241715" xlink:href="#mb18885b96b" y="640.8"/>
      </g>
     </g>
    </g>
    <g id="xtick_7">
     <g id="line2d_13">
      <path clip-path="url(#pdd62a0d932)" d="M 234.48343 640.8 
L 234.48343 86.4 
" style="fill:none;stroke:#808080;stroke-dasharray:2.96,1.28;stroke-dashoffset:0;stroke-width:0.8;"/>
     </g>
     <g id="line2d_14">
      <g>
       <use style="stroke:#000000;stroke-width:0.6;" x="234.48343" xlink:href="#mb18885b96b" y="640.8"/>
      </g>
     </g>
    </g>
    <g id="xtick_8">
     <g id="line2d_15">
      <path clip-path="url(#pdd62a0d932)" d="M 279.725144 640.8 
L 279.725144 86.4 
" style="fill:none;stroke:#808080;stroke-dasharray:2.96,1.28;stroke-dashoffset:0;stroke-width:0.8;"/>
     </g>
     <g id="line2d_16">
      <g>
       <use style="stroke:#000000;stroke-width:0.6;" x="279.725144" xlink:href="#mb18885b96b" y="640.8"/>
      </g>
     </g>
    </g>
    <g id="xtick_9">
     <g id="line2d_17">
      <path clip-path="url(#pdd62a0d932)" d="M 370.208574 640.8 
L 370.208574 86.4 
" style="fill:none;stroke:#808080;stroke-dasharray:2.96,1.28;stroke-dashoffset:0;stroke-width:0.8;"/>
     </g>
     <g id="line2d_18">
      <g>
       <use style="stroke:#000000;stroke-width:0.6;" x="370.208574" xlink:href="#mb18885b96b" y="640.8"/>
      </g>
     </g>
    </g>
    <g id="xtick_10">
     <g id="line2d_19">
      <path clip-path="url(#pdd62a0d932)" d="M 415.450289 640.8 
L 415.450289 86.4 
" style="fill:none;stroke:#808080;stroke-dasharray:2.96,1.28;stroke-dashoffset:0;stroke-width:0.8;"/>
     </g>
     <g id="line2d_20">
      <g>
       <use style="stroke:#000000;stroke-width:0.6;" x="415.450289" xlink:href="#mb18885b96b" y="640.8"/>
      </g>
     </g>
    </g>
    <g id="xtick_11">
     <g id="line2d_21">
      <path clip-path="url(#pdd62a0d932)" d="M 460.692004 640.8 
L 460.692004 86.4 
" style="fill:none;stroke:#808080;stroke-dasharray:2.96,1.28;stroke-dashoffset:0;stroke-width:0.8;"/>
     </g>
     <g id="line2d_22">
      <g>
       <use style="stroke:#000000;stroke-width:0.6;" x="460.692004" xlink:href="#mb18885b96b" y="640.8"/>
      </g>
     </g>
    </g>
    <g id="xtick_12">
     <g id="line2d_23">
      <path clip-path="url(#pdd62a0d932)" d="M 551.175433 640.8 
L 551.175433 86.4 
" style="fill:none;stroke:#808080;stroke-dasharray:2.96,1.28;stroke-dashoffset:0;stroke-width:0.8;"/>
     </g>
     <g id="line2d_24">
      <g>
       <use style="stroke:#000000;stroke-width:0.6;" x="551.175433" xlink:href="#mb18885b96b" y="640.8"/>
      </g>
     </g>
    </g>
    <g id="xtick_13">
     <g id="line2d_25">
      <path clip-path="url(#pdd62a0d932)" d="M 596.417148 640.8 
L 596.417148 86.4 
" style="fill:none;stroke:#808080;stroke-dasharray:2.96,1.28;stroke-dashoffset:0;stroke-width:0.8;"/>
     </g>
     <g id="line2d_26">
      <g>
       <use style="stroke:#000000;stroke-width:0.6;" x="596.417148" xlink:href="#mb18885b96b" y="640.8"/>
      </g>
     </g>
    </g>
    <g id="xtick_14">
     <g id="line2d_27">
      <path clip-path="url(#pdd62a0d932)" d="M 641.658863 640.8 
L 641.658863 86.4 
" style="fill:none;stroke:#808080;stroke-dasharray:2.96,1.28;stroke-dashoffset:0;stroke-width:0.8;"/>
     </g>
     <g id="line2d_28">
      <g>
       <use style="stroke:#000000;stroke-width:0.6;" x="641.658863" xlink:href="#mb18885b96b" y="640.8"/>
      </g>
     </g>
    </g>
    <g id="xtick_15">
     <g id="line2d_29">
      <path clip-path="url(#pdd62a0d932)" d="M 732.142292 640.8 
L 732.142292 86.4 
" style="fill:none;stroke:#808080;stroke-dasharray:2.96,1.28;stroke-dashoffset:0;stroke-width:0.8;"/>
     </g>
     <g id="line2d_30">
      <g>
       <use style="stroke:#000000;stroke-width:0.6;" x="732.142292" xlink:href="#mb18885b96b" y="640.8"/>
      </g>
     </g>
    </g>
    <g id="xtick_16">
     <g id="line2d_31">
      <path clip-path="url(#pdd62a0d932)" d="M 777.384007 640.8 
L 777.384007 86.4 
" style="fill:none;stroke:#808080;stroke-dasharray:2.96,1.28;stroke-dashoffset:0;stroke-width:0.8;"/>
     </g>
     <g id="line2d_32">
      <g>
       <use style="stroke:#000000;stroke-width:0.6;" x="777.384007" xlink:href="#mb18885b96b" y="640.8"/>
      </g>
     </g>
    </g>
    <g id="xtick_17">
     <g id="line2d_33">
      <path clip-path="url(#pdd62a0d932)" d="M 822.625722 640.8 
L 822.625722 86.4 
" style="fill:none;stroke:#808080;stroke-dasharray:2.96,1.28;stroke-dashoffset:0;stroke-width:0.8;"/>
     </g>
     <g id="line2d_34">
      <g>
       <use style="stroke:#000000;stroke-width:0.6;" x="822.625722" xlink:href="#mb18885b96b" y="640.8"/>
      </g>
     </g>
    </g>
    <g id="xtick_18">
     <g id="line2d_35">
      <path clip-path="url(#pdd62a0d932)" d="M 913.109152 640.8 
L 913.109152 86.4 
" style="fill:none;stroke:#808080;stroke-dasharray:2.96,1.28;stroke-dashoffset:0;stroke-width:0.8;"/>
     </g>
     <g id="line2d_36">
      <g>
       <use style="stroke:#000000;stroke-width:0.6;" x="913.109152" xlink:href="#mb18885b96b" y="640.8"/>
      </g>
     </g>
    </g>
    <g id="xtick_19">
     <g id="line2d_37">
      <path clip-path="url(#pdd62a0d932)" d="M 958.350867 640.8 
L 958.350867 86.4 
" style="fill:none;stroke:#808080;stroke-dasharray:2.96,1.28;stroke-dashoffset:0;stroke-width:0.8;"/>
     </g>
     <g id="line2d_38">
      <g>
       <use style="stroke:#000000;stroke-width:0.6;" x="958.350867" xlink:href="#mb18885b96b" y="640.8"/>
      </g>
     </g>
    </g>
    <g id="xtick_20">
     <g id="line2d_39">
      <path clip-path="url(#pdd62a0d932)" d="M 1003.592581 640.8 
L 1003.592581 86.4 
" style="fill:none;stroke:#808080;stroke-dasharray:2.96,1.28;stroke-dashoffset:0;stroke-width:0.8;"/>
     </g>
     <g id="line2d_40">
      <g>
       <use style="stroke:#000000;stroke-width:0.6;" x="1003.592581" xlink:href="#mb18885b96b" y="640.8"/>
      </g>
     </g>
    </g>
    <g id="text_6">
     <!-- Время $\tau$, с -->
     <g transform="translate(536.4 676.634375)scale(0.2 -0.2)">
      <defs>
       <path d="M 1259 2228 
L 1259 519 
L 2272 519 
Q 2781 519 3026 730 
Q 3272 941 3272 1375 
Q 3272 1813 3026 2020 
Q 2781 2228 2272 2228 
L 1259 2228 
z
M 1259 4147 
L 1259 2741 
L 2194 2741 
Q 2656 2741 2882 2914 
Q 3109 3088 3109 3444 
Q 3109 3797 2882 3972 
Q 2656 4147 2194 4147 
L 1259 4147 
z
M 628 4666 
L 2241 4666 
Q 2963 4666 3353 4366 
Q 3744 4066 3744 3513 
Q 3744 3084 3544 2831 
Q 3344 2578 2956 2516 
Q 3422 2416 3680 2098 
Q 3938 1781 3938 1306 
Q 3938 681 3513 340 
Q 3088 0 2303 0 
L 628 0 
L 628 4666 
z
" id="DejaVuSans-412" transform="scale(0.015625)"/>
       <path d="M 1159 525 
L 1159 -1331 
L 581 -1331 
L 581 3500 
L 1159 3500 
L 1159 2969 
Q 1341 3281 1617 3432 
Q 1894 3584 2278 3584 
Q 2916 3584 3314 3078 
Q 3713 2572 3713 1747 
Q 3713 922 3314 415 
Q 2916 -91 2278 -91 
Q 1894 -91 1617 61 
Q 1341 213 1159 525 
z
M 3116 1747 
Q 3116 2381 2855 2742 
Q 2594 3103 2138 3103 
Q 1681 3103 1420 2742 
Q 1159 2381 1159 1747 
Q 1159 1113 1420 752 
Q 1681 391 2138 391 
Q 2594 391 2855 752 
Q 3116 1113 3116 1747 
z
" id="DejaVuSans-440" transform="scale(0.015625)"/>
       <path d="M 3597 1894 
L 3597 1613 
L 953 1613 
Q 991 1019 1311 708 
Q 1631 397 2203 397 
Q 2534 397 2845 478 
Q 3156 559 3463 722 
L 3463 178 
Q 3153 47 2828 -22 
Q 2503 -91 2169 -91 
Q 1331 -91 842 396 
Q 353 884 353 1716 
Q 353 2575 817 3079 
Q 1281 3584 2069 3584 
Q 2775 3584 3186 3129 
Q 3597 2675 3597 1894 
z
M 3022 2063 
Q 3016 2534 2758 2815 
Q 2500 3097 2075 3097 
Q 1594 3097 1305 2825 
Q 1016 2553 972 2059 
L 3022 2063 
z
" id="DejaVuSans-435" transform="scale(0.015625)"/>
       <path d="M 581 3500 
L 1422 3500 
L 2416 1156 
L 3413 3500 
L 4247 3500 
L 4247 0 
L 3669 0 
L 3669 2950 
L 2703 672 
L 2128 672 
L 1159 2950 
L 1159 0 
L 581 0 
L 581 3500 
z
" id="DejaVuSans-43c" transform="scale(0.015625)"/>
       <path d="M 1181 2491 
Q 1181 2231 1381 2084 
Q 1581 1938 1953 1938 
L 2728 1938 
L 2728 3041 
L 1953 3041 
Q 1581 3041 1381 2897 
Q 1181 2753 1181 2491 
z
M 363 0 
L 1431 1534 
Q 1069 1616 828 1830 
Q 588 2044 588 2491 
Q 588 2997 923 3248 
Q 1259 3500 1938 3500 
L 3306 3500 
L 3306 0 
L 2728 0 
L 2728 1478 
L 2013 1478 
L 981 0 
L 363 0 
z
" id="DejaVuSans-44f" transform="scale(0.015625)"/>
       <path id="DejaVuSans-20" transform="scale(0.015625)"/>
       <path d="M 2103 638 
Q 2188 488 2525 488 
L 2800 488 
L 2706 0 
L 2363 0 
Q 1800 0 1600 300 
Q 1403 606 1534 1269 
L 1856 2925 
L 541 2925 
L 653 3500 
L 3881 3500 
L 3769 2925 
L 2444 2925 
L 2113 1234 
Q 2025 781 2103 638 
z
" id="DejaVuSans-Oblique-3c4" transform="scale(0.015625)"/>
       <path d="M 750 794 
L 1409 794 
L 1409 256 
L 897 -744 
L 494 -744 
L 750 256 
L 750 794 
z
" id="DejaVuSans-2c" transform="scale(0.015625)"/>
       <path d="M 3122 3366 
L 3122 2828 
Q 2878 2963 2633 3030 
Q 2388 3097 2138 3097 
Q 1578 3097 1268 2742 
Q 959 2388 959 1747 
Q 959 1106 1268 751 
Q 1578 397 2138 397 
Q 2388 397 2633 464 
Q 2878 531 3122 666 
L 3122 134 
Q 2881 22 2623 -34 
Q 2366 -91 2075 -91 
Q 1284 -91 818 406 
Q 353 903 353 1747 
Q 353 2603 823 3093 
Q 1294 3584 2113 3584 
Q 2378 3584 2631 3529 
Q 2884 3475 3122 3366 
z
" id="DejaVuSans-441" transform="scale(0.015625)"/>
      </defs>
      <use transform="translate(0 0.09375)" xlink:href="#DejaVuSans-412"/>
      <use transform="translate(68.603516 0.09375)" xlink:href="#DejaVuSans-440"/>
      <use transform="translate(132.080078 0.09375)" xlink:href="#DejaVuSans-435"/>
      <use transform="translate(193.603516 0.09375)" xlink:href="#DejaVuSans-43c"/>
      <use transform="translate(269.042969 0.09375)" xlink:href="#DejaVuSans-44f"/>
      <use transform="translate(329.199219 0.09375)" xlink:href="#DejaVuSans-20"/>
      <use transform="translate(360.986328 0.09375)" xlink:href="#DejaVuSans-Oblique-3c4"/>
      <use transform="translate(421.191406 0.09375)" xlink:href="#DejaVuSans-2c"/>
      <use transform="translate(452.978516 0.09375)" xlink:href="#DejaVuSans-20"/>
      <use transform="translate(484.765625 0.09375)" xlink:href="#DejaVuSans-441"/>
     </g>
    </g>
   </g>
   <g id="matplotlib.axis_2">
    <g id="ytick_1">
     <g id="line2d_41">
      <path clip-path="url(#pdd62a0d932)" d="M 144 563.643199 
L 1036.8 563.643199 
" style="fill:none;stroke:#000000;stroke-linecap:square;stroke-width:0.8;"/>
     </g>
     <g id="line2d_42">
      <defs>
       <path d="M 0 0 
L -3.5 0 
" id="m9cfea71933" style="stroke:#000000;stroke-width:0.8;"/>
      </defs>
      <g>
       <use style="stroke:#000000;stroke-width:0.8;" x="144" xlink:href="#m9cfea71933" y="563.643199"/>
      </g>
     </g>
     <g id="text_7">
      <!-- 0.5 -->
      <g transform="translate(121.096875 567.442417)scale(0.1 -0.1)">
       <defs>
        <path d="M 684 794 
L 1344 794 
L 1344 0 
L 684 0 
L 684 794 
z
" id="DejaVuSans-2e" transform="scale(0.015625)"/>
        <path d="M 691 4666 
L 3169 4666 
L 3169 4134 
L 1269 4134 
L 1269 2991 
Q 1406 3038 1543 3061 
Q 1681 3084 1819 3084 
Q 2600 3084 3056 2656 
Q 3513 2228 3513 1497 
Q 3513 744 3044 326 
Q 2575 -91 1722 -91 
Q 1428 -91 1123 -41 
Q 819 9 494 109 
L 494 744 
Q 775 591 1075 516 
Q 1375 441 1709 441 
Q 2250 441 2565 725 
Q 2881 1009 2881 1497 
Q 2881 1984 2565 2268 
Q 2250 2553 1709 2553 
Q 1456 2553 1204 2497 
Q 953 2441 691 2322 
L 691 4666 
z
" id="DejaVuSans-35" transform="scale(0.015625)"/>
       </defs>
       <use xlink:href="#DejaVuSans-30"/>
       <use x="63.623047" xlink:href="#DejaVuSans-2e"/>
       <use x="95.410156" xlink:href="#DejaVuSans-35"/>
      </g>
     </g>
    </g>
    <g id="ytick_2">
     <g id="line2d_43">
      <path clip-path="url(#pdd62a0d932)" d="M 144 484.361652 
L 1036.8 484.361652 
" style="fill:none;stroke:#000000;stroke-linecap:square;stroke-width:0.8;"/>
     </g>
     <g id="line2d_44">
      <g>
       <use style="stroke:#000000;stroke-width:0.8;" x="144" xlink:href="#m9cfea71933" y="484.361652"/>
      </g>
     </g>
     <g id="text_8">
      <!-- 1.0 -->
      <g transform="translate(121.096875 488.160871)scale(0.1 -0.1)">
       <defs>
        <path d="M 794 531 
L 1825 531 
L 1825 4091 
L 703 3866 
L 703 4441 
L 1819 4666 
L 2450 4666 
L 2450 531 
L 3481 531 
L 3481 0 
L 794 0 
L 794 531 
z
" id="DejaVuSans-31" transform="scale(0.015625)"/>
       </defs>
       <use xlink:href="#DejaVuSans-31"/>
       <use x="63.623047" xlink:href="#DejaVuSans-2e"/>
       <use x="95.410156" xlink:href="#DejaVuSans-30"/>
      </g>
     </g>
    </g>
    <g id="ytick_3">
     <g id="line2d_45">
      <path clip-path="url(#pdd62a0d932)" d="M 144 405.080105 
L 1036.8 405.080105 
" style="fill:none;stroke:#000000;stroke-linecap:square;stroke-width:0.8;"/>
     </g>
     <g id="line2d_46">
      <g>
       <use style="stroke:#000000;stroke-width:0.8;" x="144" xlink:href="#m9cfea71933" y="405.080105"/>
      </g>
     </g>
     <g id="text_9">
      <!-- 1.5 -->
      <g transform="translate(121.096875 408.879324)scale(0.1 -0.1)">
       <use xlink:href="#DejaVuSans-31"/>
       <use x="63.623047" xlink:href="#DejaVuSans-2e"/>
       <use x="95.410156" xlink:href="#DejaVuSans-35"/>
      </g>
     </g>
    </g>
    <g id="ytick_4">
     <g id="line2d_47">
      <path clip-path="url(#pdd62a0d932)" d="M 144 325.798559 
L 1036.8 325.798559 
" style="fill:none;stroke:#000000;stroke-linecap:square;stroke-width:0.8;"/>
     </g>
     <g id="line2d_48">
      <g>
       <use style="stroke:#000000;stroke-width:0.8;" x="144" xlink:href="#m9cfea71933" y="325.798559"/>
      </g>
     </g>
     <g id="text_10">
      <!-- 2.0 -->
      <g transform="translate(121.096875 329.597777)scale(0.1 -0.1)">
       <use xlink:href="#DejaVuSans-32"/>
       <use x="63.623047" xlink:href="#DejaVuSans-2e"/>
       <use x="95.410156" xlink:href="#DejaVuSans-30"/>
      </g>
     </g>
    </g>
    <g id="ytick_5">
     <g id="line2d_49">
      <path clip-path="url(#pdd62a0d932)" d="M 144 246.517012 
L 1036.8 246.517012 
" style="fill:none;stroke:#000000;stroke-linecap:square;stroke-width:0.8;"/>
     </g>
     <g id="line2d_50">
      <g>
       <use style="stroke:#000000;stroke-width:0.8;" x="144" xlink:href="#m9cfea71933" y="246.517012"/>
      </g>
     </g>
     <g id="text_11">
      <!-- 2.5 -->
      <g transform="translate(121.096875 250.316231)scale(0.1 -0.1)">
       <use xlink:href="#DejaVuSans-32"/>
       <use x="63.623047" xlink:href="#DejaVuSans-2e"/>
       <use x="95.410156" xlink:href="#DejaVuSans-35"/>
      </g>
     </g>
    </g>
    <g id="ytick_6">
     <g id="line2d_51">
      <path clip-path="url(#pdd62a0d932)" d="M 144 167.235465 
L 1036.8 167.235465 
" style="fill:none;stroke:#000000;stroke-linecap:square;stroke-width:0.8;"/>
     </g>
     <g id="line2d_52">
      <g>
       <use style="stroke:#000000;stroke-width:0.8;" x="144" xlink:href="#m9cfea71933" y="167.235465"/>
      </g>
     </g>
     <g id="text_12">
      <!-- 3.0 -->
      <g transform="translate(121.096875 171.034684)scale(0.1 -0.1)">
       <defs>
        <path d="M 2597 2516 
Q 3050 2419 3304 2112 
Q 3559 1806 3559 1356 
Q 3559 666 3084 287 
Q 2609 -91 1734 -91 
Q 1441 -91 1130 -33 
Q 819 25 488 141 
L 488 750 
Q 750 597 1062 519 
Q 1375 441 1716 441 
Q 2309 441 2620 675 
Q 2931 909 2931 1356 
Q 2931 1769 2642 2001 
Q 2353 2234 1838 2234 
L 1294 2234 
L 1294 2753 
L 1863 2753 
Q 2328 2753 2575 2939 
Q 2822 3125 2822 3475 
Q 2822 3834 2567 4026 
Q 2313 4219 1838 4219 
Q 1578 4219 1281 4162 
Q 984 4106 628 3988 
L 628 4550 
Q 988 4650 1302 4700 
Q 1616 4750 1894 4750 
Q 2613 4750 3031 4423 
Q 3450 4097 3450 3541 
Q 3450 3153 3228 2886 
Q 3006 2619 2597 2516 
z
" id="DejaVuSans-33" transform="scale(0.015625)"/>
       </defs>
       <use xlink:href="#DejaVuSans-33"/>
       <use x="63.623047" xlink:href="#DejaVuSans-2e"/>
       <use x="95.410156" xlink:href="#DejaVuSans-30"/>
      </g>
     </g>
    </g>
    <g id="ytick_7">
     <g id="line2d_53">
      <path clip-path="url(#pdd62a0d932)" d="M 144 87.953918 
L 1036.8 87.953918 
" style="fill:none;stroke:#000000;stroke-linecap:square;stroke-width:0.8;"/>
     </g>
     <g id="line2d_54">
      <g>
       <use style="stroke:#000000;stroke-width:0.8;" x="144" xlink:href="#m9cfea71933" y="87.953918"/>
      </g>
     </g>
     <g id="text_13">
      <!-- 3.5 -->
      <g transform="translate(121.096875 91.753137)scale(0.1 -0.1)">
       <use xlink:href="#DejaVuSans-33"/>
       <use x="63.623047" xlink:href="#DejaVuSans-2e"/>
       <use x="95.410156" xlink:href="#DejaVuSans-35"/>
      </g>
     </g>
    </g>
    <g id="ytick_8">
     <g id="line2d_55">
      <path clip-path="url(#pdd62a0d932)" d="M 144 627.068436 
L 1036.8 627.068436 
" style="fill:none;stroke:#808080;stroke-dasharray:2.96,1.28;stroke-dashoffset:0;stroke-width:0.8;"/>
     </g>
     <g id="line2d_56">
      <defs>
       <path d="M 0 0 
L -2 0 
" id="mdbfead3a2a" style="stroke:#000000;stroke-width:0.6;"/>
      </defs>
      <g>
       <use style="stroke:#000000;stroke-width:0.6;" x="144" xlink:href="#mdbfead3a2a" y="627.068436"/>
      </g>
     </g>
    </g>
    <g id="ytick_9">
     <g id="line2d_57">
      <path clip-path="url(#pdd62a0d932)" d="M 144 611.212127 
L 1036.8 611.212127 
" style="fill:none;stroke:#808080;stroke-dasharray:2.96,1.28;stroke-dashoffset:0;stroke-width:0.8;"/>
     </g>
     <g id="line2d_58">
      <g>
       <use style="stroke:#000000;stroke-width:0.6;" x="144" xlink:href="#mdbfead3a2a" y="611.212127"/>
      </g>
     </g>
    </g>
    <g id="ytick_10">
     <g id="line2d_59">
      <path clip-path="url(#pdd62a0d932)" d="M 144 595.355817 
L 1036.8 595.355817 
" style="fill:none;stroke:#808080;stroke-dasharray:2.96,1.28;stroke-dashoffset:0;stroke-width:0.8;"/>
     </g>
     <g id="line2d_60">
      <g>
       <use style="stroke:#000000;stroke-width:0.6;" x="144" xlink:href="#mdbfead3a2a" y="595.355817"/>
      </g>
     </g>
    </g>
    <g id="ytick_11">
     <g id="line2d_61">
      <path clip-path="url(#pdd62a0d932)" d="M 144 579.499508 
L 1036.8 579.499508 
" style="fill:none;stroke:#808080;stroke-dasharray:2.96,1.28;stroke-dashoffset:0;stroke-width:0.8;"/>
     </g>
     <g id="line2d_62">
      <g>
       <use style="stroke:#000000;stroke-width:0.6;" x="144" xlink:href="#mdbfead3a2a" y="579.499508"/>
      </g>
     </g>
    </g>
    <g id="ytick_12">
     <g id="line2d_63">
      <path clip-path="url(#pdd62a0d932)" d="M 144 547.786889 
L 1036.8 547.786889 
" style="fill:none;stroke:#808080;stroke-dasharray:2.96,1.28;stroke-dashoffset:0;stroke-width:0.8;"/>
     </g>
     <g id="line2d_64">
      <g>
       <use style="stroke:#000000;stroke-width:0.6;" x="144" xlink:href="#mdbfead3a2a" y="547.786889"/>
      </g>
     </g>
    </g>
    <g id="ytick_13">
     <g id="line2d_65">
      <path clip-path="url(#pdd62a0d932)" d="M 144 531.93058 
L 1036.8 531.93058 
" style="fill:none;stroke:#808080;stroke-dasharray:2.96,1.28;stroke-dashoffset:0;stroke-width:0.8;"/>
     </g>
     <g id="line2d_66">
      <g>
       <use style="stroke:#000000;stroke-width:0.6;" x="144" xlink:href="#mdbfead3a2a" y="531.93058"/>
      </g>
     </g>
    </g>
    <g id="ytick_14">
     <g id="line2d_67">
      <path clip-path="url(#pdd62a0d932)" d="M 144 516.074271 
L 1036.8 516.074271 
" style="fill:none;stroke:#808080;stroke-dasharray:2.96,1.28;stroke-dashoffset:0;stroke-width:0.8;"/>
     </g>
     <g id="line2d_68">
      <g>
       <use style="stroke:#000000;stroke-width:0.6;" x="144" xlink:href="#mdbfead3a2a" y="516.074271"/>
      </g>
     </g>
    </g>
    <g id="ytick_15">
     <g id="line2d_69">
      <path clip-path="url(#pdd62a0d932)" d="M 144 500.217961 
L 1036.8 500.217961 
" style="fill:none;stroke:#808080;stroke-dasharray:2.96,1.28;stroke-dashoffset:0;stroke-width:0.8;"/>
     </g>
     <g id="line2d_70">
      <g>
       <use style="stroke:#000000;stroke-width:0.6;" x="144" xlink:href="#mdbfead3a2a" y="500.217961"/>
      </g>
     </g>
    </g>
    <g id="ytick_16">
     <g id="line2d_71">
      <path clip-path="url(#pdd62a0d932)" d="M 144 468.505343 
L 1036.8 468.505343 
" style="fill:none;stroke:#808080;stroke-dasharray:2.96,1.28;stroke-dashoffset:0;stroke-width:0.8;"/>
     </g>
     <g id="line2d_72">
      <g>
       <use style="stroke:#000000;stroke-width:0.6;" x="144" xlink:href="#mdbfead3a2a" y="468.505343"/>
      </g>
     </g>
    </g>
    <g id="ytick_17">
     <g id="line2d_73">
      <path clip-path="url(#pdd62a0d932)" d="M 144 452.649033 
L 1036.8 452.649033 
" style="fill:none;stroke:#808080;stroke-dasharray:2.96,1.28;stroke-dashoffset:0;stroke-width:0.8;"/>
     </g>
     <g id="line2d_74">
      <g>
       <use style="stroke:#000000;stroke-width:0.6;" x="144" xlink:href="#mdbfead3a2a" y="452.649033"/>
      </g>
     </g>
    </g>
    <g id="ytick_18">
     <g id="line2d_75">
      <path clip-path="url(#pdd62a0d932)" d="M 144 436.792724 
L 1036.8 436.792724 
" style="fill:none;stroke:#808080;stroke-dasharray:2.96,1.28;stroke-dashoffset:0;stroke-width:0.8;"/>
     </g>
     <g id="line2d_76">
      <g>
       <use style="stroke:#000000;stroke-width:0.6;" x="144" xlink:href="#mdbfead3a2a" y="436.792724"/>
      </g>
     </g>
    </g>
    <g id="ytick_19">
     <g id="line2d_77">
      <path clip-path="url(#pdd62a0d932)" d="M 144 420.936415 
L 1036.8 420.936415 
" style="fill:none;stroke:#808080;stroke-dasharray:2.96,1.28;stroke-dashoffset:0;stroke-width:0.8;"/>
     </g>
     <g id="line2d_78">
      <g>
       <use style="stroke:#000000;stroke-width:0.6;" x="144" xlink:href="#mdbfead3a2a" y="420.936415"/>
      </g>
     </g>
    </g>
    <g id="ytick_20">
     <g id="line2d_79">
      <path clip-path="url(#pdd62a0d932)" d="M 144 389.223796 
L 1036.8 389.223796 
" style="fill:none;stroke:#808080;stroke-dasharray:2.96,1.28;stroke-dashoffset:0;stroke-width:0.8;"/>
     </g>
     <g id="line2d_80">
      <g>
       <use style="stroke:#000000;stroke-width:0.6;" x="144" xlink:href="#mdbfead3a2a" y="389.223796"/>
      </g>
     </g>
    </g>
    <g id="ytick_21">
     <g id="line2d_81">
      <path clip-path="url(#pdd62a0d932)" d="M 144 373.367487 
L 1036.8 373.367487 
" style="fill:none;stroke:#808080;stroke-dasharray:2.96,1.28;stroke-dashoffset:0;stroke-width:0.8;"/>
     </g>
     <g id="line2d_82">
      <g>
       <use style="stroke:#000000;stroke-width:0.6;" x="144" xlink:href="#mdbfead3a2a" y="373.367487"/>
      </g>
     </g>
    </g>
    <g id="ytick_22">
     <g id="line2d_83">
      <path clip-path="url(#pdd62a0d932)" d="M 144 357.511177 
L 1036.8 357.511177 
" style="fill:none;stroke:#808080;stroke-dasharray:2.96,1.28;stroke-dashoffset:0;stroke-width:0.8;"/>
     </g>
     <g id="line2d_84">
      <g>
       <use style="stroke:#000000;stroke-width:0.6;" x="144" xlink:href="#mdbfead3a2a" y="357.511177"/>
      </g>
     </g>
    </g>
    <g id="ytick_23">
     <g id="line2d_85">
      <path clip-path="url(#pdd62a0d932)" d="M 144 341.654868 
L 1036.8 341.654868 
" style="fill:none;stroke:#808080;stroke-dasharray:2.96,1.28;stroke-dashoffset:0;stroke-width:0.8;"/>
     </g>
     <g id="line2d_86">
      <g>
       <use style="stroke:#000000;stroke-width:0.6;" x="144" xlink:href="#mdbfead3a2a" y="341.654868"/>
      </g>
     </g>
    </g>
    <g id="ytick_24">
     <g id="line2d_87">
      <path clip-path="url(#pdd62a0d932)" d="M 144 309.942249 
L 1036.8 309.942249 
" style="fill:none;stroke:#808080;stroke-dasharray:2.96,1.28;stroke-dashoffset:0;stroke-width:0.8;"/>
     </g>
     <g id="line2d_88">
      <g>
       <use style="stroke:#000000;stroke-width:0.6;" x="144" xlink:href="#mdbfead3a2a" y="309.942249"/>
      </g>
     </g>
    </g>
    <g id="ytick_25">
     <g id="line2d_89">
      <path clip-path="url(#pdd62a0d932)" d="M 144 294.08594 
L 1036.8 294.08594 
" style="fill:none;stroke:#808080;stroke-dasharray:2.96,1.28;stroke-dashoffset:0;stroke-width:0.8;"/>
     </g>
     <g id="line2d_90">
      <g>
       <use style="stroke:#000000;stroke-width:0.6;" x="144" xlink:href="#mdbfead3a2a" y="294.08594"/>
      </g>
     </g>
    </g>
    <g id="ytick_26">
     <g id="line2d_91">
      <path clip-path="url(#pdd62a0d932)" d="M 144 278.22963 
L 1036.8 278.22963 
" style="fill:none;stroke:#808080;stroke-dasharray:2.96,1.28;stroke-dashoffset:0;stroke-width:0.8;"/>
     </g>
     <g id="line2d_92">
      <g>
       <use style="stroke:#000000;stroke-width:0.6;" x="144" xlink:href="#mdbfead3a2a" y="278.22963"/>
      </g>
     </g>
    </g>
    <g id="ytick_27">
     <g id="line2d_93">
      <path clip-path="url(#pdd62a0d932)" d="M 144 262.373321 
L 1036.8 262.373321 
" style="fill:none;stroke:#808080;stroke-dasharray:2.96,1.28;stroke-dashoffset:0;stroke-width:0.8;"/>
     </g>
     <g id="line2d_94">
      <g>
       <use style="stroke:#000000;stroke-width:0.6;" x="144" xlink:href="#mdbfead3a2a" y="262.373321"/>
      </g>
     </g>
    </g>
    <g id="ytick_28">
     <g id="line2d_95">
      <path clip-path="url(#pdd62a0d932)" d="M 144 230.660702 
L 1036.8 230.660702 
" style="fill:none;stroke:#808080;stroke-dasharray:2.96,1.28;stroke-dashoffset:0;stroke-width:0.8;"/>
     </g>
     <g id="line2d_96">
      <g>
       <use style="stroke:#000000;stroke-width:0.6;" x="144" xlink:href="#mdbfead3a2a" y="230.660702"/>
      </g>
     </g>
    </g>
    <g id="ytick_29">
     <g id="line2d_97">
      <path clip-path="url(#pdd62a0d932)" d="M 144 214.804393 
L 1036.8 214.804393 
" style="fill:none;stroke:#808080;stroke-dasharray:2.96,1.28;stroke-dashoffset:0;stroke-width:0.8;"/>
     </g>
     <g id="line2d_98">
      <g>
       <use style="stroke:#000000;stroke-width:0.6;" x="144" xlink:href="#mdbfead3a2a" y="214.804393"/>
      </g>
     </g>
    </g>
    <g id="ytick_30">
     <g id="line2d_99">
      <path clip-path="url(#pdd62a0d932)" d="M 144 198.948084 
L 1036.8 198.948084 
" style="fill:none;stroke:#808080;stroke-dasharray:2.96,1.28;stroke-dashoffset:0;stroke-width:0.8;"/>
     </g>
     <g id="line2d_100">
      <g>
       <use style="stroke:#000000;stroke-width:0.6;" x="144" xlink:href="#mdbfead3a2a" y="198.948084"/>
      </g>
     </g>
    </g>
    <g id="ytick_31">
     <g id="line2d_101">
      <path clip-path="url(#pdd62a0d932)" d="M 144 183.091774 
L 1036.8 183.091774 
" style="fill:none;stroke:#808080;stroke-dasharray:2.96,1.28;stroke-dashoffset:0;stroke-width:0.8;"/>
     </g>
     <g id="line2d_102">
      <g>
       <use style="stroke:#000000;stroke-width:0.6;" x="144" xlink:href="#mdbfead3a2a" y="183.091774"/>
      </g>
     </g>
    </g>
    <g id="ytick_32">
     <g id="line2d_103">
      <path clip-path="url(#pdd62a0d932)" d="M 144 151.379156 
L 1036.8 151.379156 
" style="fill:none;stroke:#808080;stroke-dasharray:2.96,1.28;stroke-dashoffset:0;stroke-width:0.8;"/>
     </g>
     <g id="line2d_104">
      <g>
       <use style="stroke:#000000;stroke-width:0.6;" x="144" xlink:href="#mdbfead3a2a" y="151.379156"/>
      </g>
     </g>
    </g>
    <g id="ytick_33">
     <g id="line2d_105">
      <path clip-path="url(#pdd62a0d932)" d="M 144 135.522846 
L 1036.8 135.522846 
" style="fill:none;stroke:#808080;stroke-dasharray:2.96,1.28;stroke-dashoffset:0;stroke-width:0.8;"/>
     </g>
     <g id="line2d_106">
      <g>
       <use style="stroke:#000000;stroke-width:0.6;" x="144" xlink:href="#mdbfead3a2a" y="135.522846"/>
      </g>
     </g>
    </g>
    <g id="ytick_34">
     <g id="line2d_107">
      <path clip-path="url(#pdd62a0d932)" d="M 144 119.666537 
L 1036.8 119.666537 
" style="fill:none;stroke:#808080;stroke-dasharray:2.96,1.28;stroke-dashoffset:0;stroke-width:0.8;"/>
     </g>
     <g id="line2d_108">
      <g>
       <use style="stroke:#000000;stroke-width:0.6;" x="144" xlink:href="#mdbfead3a2a" y="119.666537"/>
      </g>
     </g>
    </g>
    <g id="ytick_35">
     <g id="line2d_109">
      <path clip-path="url(#pdd62a0d932)" d="M 144 103.810228 
L 1036.8 103.810228 
" style="fill:none;stroke:#808080;stroke-dasharray:2.96,1.28;stroke-dashoffset:0;stroke-width:0.8;"/>
     </g>
     <g id="line2d_110">
      <g>
       <use style="stroke:#000000;stroke-width:0.6;" x="144" xlink:href="#mdbfead3a2a" y="103.810228"/>
      </g>
     </g>
    </g>
    <g id="text_14">
     <!-- Напряжение $U$, В -->
     <g transform="translate(112.896875 454.3)rotate(-90)scale(0.2 -0.2)">
      <defs>
       <path d="M 628 4666 
L 1259 4666 
L 1259 2753 
L 3553 2753 
L 3553 4666 
L 4184 4666 
L 4184 0 
L 3553 0 
L 3553 2222 
L 1259 2222 
L 1259 0 
L 628 0 
L 628 4666 
z
" id="DejaVuSans-41d" transform="scale(0.015625)"/>
       <path d="M 2194 1759 
Q 1497 1759 1228 1600 
Q 959 1441 959 1056 
Q 959 750 1161 570 
Q 1363 391 1709 391 
Q 2188 391 2477 730 
Q 2766 1069 2766 1631 
L 2766 1759 
L 2194 1759 
z
M 3341 1997 
L 3341 0 
L 2766 0 
L 2766 531 
Q 2569 213 2275 61 
Q 1981 -91 1556 -91 
Q 1019 -91 701 211 
Q 384 513 384 1019 
Q 384 1609 779 1909 
Q 1175 2209 1959 2209 
L 2766 2209 
L 2766 2266 
Q 2766 2663 2505 2880 
Q 2244 3097 1772 3097 
Q 1472 3097 1187 3025 
Q 903 2953 641 2809 
L 641 3341 
Q 956 3463 1253 3523 
Q 1550 3584 1831 3584 
Q 2591 3584 2966 3190 
Q 3341 2797 3341 1997 
z
" id="DejaVuSans-430" transform="scale(0.015625)"/>
       <path d="M 3603 3500 
L 3603 0 
L 3025 0 
L 3025 3041 
L 1159 3041 
L 1159 0 
L 581 0 
L 581 3500 
L 3603 3500 
z
" id="DejaVuSans-43f" transform="scale(0.015625)"/>
       <path d="M 2597 3500 
L 3169 3500 
L 3169 1856 
L 4697 3500 
L 5366 3500 
L 4109 2153 
L 5547 0 
L 4931 0 
L 3753 1769 
L 3169 1141 
L 3169 0 
L 2597 0 
L 2597 1141 
L 2013 1769 
L 834 0 
L 219 0 
L 1656 2153 
L 400 3500 
L 1069 3500 
L 2597 1856 
L 2597 3500 
z
" id="DejaVuSans-436" transform="scale(0.015625)"/>
       <path d="M 581 3500 
L 1159 3500 
L 1159 2072 
L 3025 2072 
L 3025 3500 
L 3603 3500 
L 3603 0 
L 3025 0 
L 3025 1613 
L 1159 1613 
L 1159 0 
L 581 0 
L 581 3500 
z
" id="DejaVuSans-43d" transform="scale(0.015625)"/>
       <path d="M 3578 3500 
L 3578 0 
L 3006 0 
L 3006 2809 
L 1319 0 
L 581 0 
L 581 3500 
L 1153 3500 
L 1153 697 
L 2838 3500 
L 3578 3500 
z
" id="DejaVuSans-438" transform="scale(0.015625)"/>
       <path d="M 991 4666 
L 1625 4666 
L 1075 1831 
Q 1041 1641 1027 1517 
Q 1013 1394 1013 1300 
Q 1013 869 1253 645 
Q 1494 422 1959 422 
Q 2563 422 2898 753 
Q 3234 1084 3378 1831 
L 3928 4666 
L 4563 4666 
L 4000 1753 
Q 3816 809 3300 359 
Q 2784 -91 1888 -91 
Q 1188 -91 780 261 
Q 372 613 372 1216 
Q 372 1325 387 1461 
Q 403 1597 434 1753 
L 991 4666 
z
" id="DejaVuSans-Oblique-55" transform="scale(0.015625)"/>
      </defs>
      <use transform="translate(0 0.09375)" xlink:href="#DejaVuSans-41d"/>
      <use transform="translate(75.195312 0.09375)" xlink:href="#DejaVuSans-430"/>
      <use transform="translate(136.474609 0.09375)" xlink:href="#DejaVuSans-43f"/>
      <use transform="translate(201.855469 0.09375)" xlink:href="#DejaVuSans-440"/>
      <use transform="translate(265.332031 0.09375)" xlink:href="#DejaVuSans-44f"/>
      <use transform="translate(325.488281 0.09375)" xlink:href="#DejaVuSans-436"/>
      <use transform="translate(415.576172 0.09375)" xlink:href="#DejaVuSans-435"/>
      <use transform="translate(477.099609 0.09375)" xlink:href="#DejaVuSans-43d"/>
      <use transform="translate(542.480469 0.09375)" xlink:href="#DejaVuSans-438"/>
      <use transform="translate(607.470703 0.09375)" xlink:href="#DejaVuSans-435"/>
      <use transform="translate(668.994141 0.09375)" xlink:href="#DejaVuSans-20"/>
      <use transform="translate(700.78125 0.09375)" xlink:href="#DejaVuSans-Oblique-55"/>
      <use transform="translate(773.974609 0.09375)" xlink:href="#DejaVuSans-2c"/>
      <use transform="translate(805.761719 0.09375)" xlink:href="#DejaVuSans-20"/>
      <use transform="translate(837.548828 0.09375)" xlink:href="#DejaVuSans-412"/>
     </g>
    </g>
   </g>
   <g id="line2d_111">
    <path clip-path="url(#pdd62a0d932)" d="M 144 640.8 
L 144.995318 632.301018 
L 147.981271 619.552545 
L 148.976589 611.053564 
L 150.967224 602.554582 
L 151.962542 594.0556 
L 152.95786 594.0556 
L 153.953177 585.556618 
L 154.948495 585.556618 
L 155.943813 577.057636 
L 156.93913 577.057636 
L 157.934448 564.309164 
L 170.873579 509.065782 
L 171.868896 509.065782 
L 172.864214 500.5668 
L 176.845485 483.568837 
L 177.840803 483.568837 
L 178.83612 475.069855 
L 179.831438 475.069855 
L 187.79398 441.073927 
L 188.789298 441.073927 
L 192.770569 424.075964 
L 193.765886 424.075964 
L 197.747157 407.078 
L 198.742475 407.078 
L 200.73311 398.579018 
L 201.728428 398.579018 
L 203.719064 390.080037 
L 204.714381 390.080037 
L 206.705017 381.581055 
L 207.700334 381.581055 
L 209.69097 373.082073 
L 211.681605 373.082073 
L 212.676923 364.583091 
L 213.672241 364.583091 
L 214.667559 360.3336 
L 215.662876 360.3336 
L 217.653512 351.834618 
L 218.648829 351.834618 
L 219.644147 347.585128 
L 220.639465 347.585128 
L 222.6301 339.086146 
L 224.620736 339.086146 
L 226.611371 330.587164 
L 228.602007 330.587164 
L 230.592642 322.088182 
L 231.58796 322.088182 
L 232.583278 317.838691 
L 233.578595 317.838691 
L 234.573913 313.5892 
L 235.569231 313.5892 
L 236.564548 309.339709 
L 237.559866 309.339709 
L 238.555184 305.090219 
L 241.541137 305.090219 
L 242.536455 296.591237 
L 244.52709 296.591237 
L 245.522408 292.341746 
L 246.517726 292.341746 
L 247.513043 288.092255 
L 249.503679 288.092255 
L 250.498997 283.842764 
L 251.494314 283.842764 
L 252.489632 279.593273 
L 253.48495 279.593273 
L 254.480268 275.343782 
L 257.466221 275.343782 
L 259.456856 266.8448 
L 261.447492 266.8448 
L 262.442809 262.595309 
L 264.433445 262.595309 
L 265.428763 258.345819 
L 266.42408 258.345819 
L 267.419398 254.096328 
L 270.405351 254.096328 
L 271.400669 249.846837 
L 272.395987 249.846837 
L 273.391304 245.597346 
L 275.38194 245.597346 
L 276.377258 241.347855 
L 279.363211 241.347855 
L 281.353846 232.848873 
L 287.325753 232.848873 
L 289.316388 224.349891 
L 293.297659 224.349891 
L 294.292977 220.1004 
L 297.27893 220.1004 
L 298.274247 215.85091 
L 300.264883 215.85091 
L 301.260201 211.601419 
L 303.250836 211.601419 
L 304.246154 207.351928 
L 308.227425 207.351928 
L 309.222742 203.102437 
L 313.204013 203.102437 
L 314.199331 198.852946 
L 318.180602 198.852946 
L 319.17592 194.603455 
L 323.157191 194.603455 
L 324.152508 190.353964 
L 326.143144 190.353964 
L 327.138462 186.104473 
L 328.133779 190.353964 
L 329.129097 186.104473 
L 332.11505 186.104473 
L 333.110368 181.854982 
L 340.077592 181.854982 
L 341.07291 177.605491 
L 346.049498 177.605491 
L 347.044816 173.356 
L 352.021405 173.356 
L 353.016722 169.10651 
L 356.997993 169.10651 
L 357.993311 164.857019 
L 368.941806 164.857019 
L 369.937124 160.607528 
L 377.899666 160.607528 
L 378.894983 156.358037 
L 379.890301 160.607528 
L 380.885619 156.358037 
L 385.862207 156.358037 
L 386.857525 152.108546 
L 387.852843 156.358037 
L 388.848161 152.108546 
L 397.80602 152.108546 
L 398.801338 147.859055 
L 407.759197 147.859055 
L 408.754515 143.609564 
L 417.712375 143.609564 
L 418.707692 139.360073 
L 419.70301 143.609564 
L 420.698328 143.609564 
L 421.693645 139.360073 
L 430.651505 139.360073 
L 431.646823 135.110582 
L 432.64214 139.360073 
L 433.637458 139.360073 
L 434.632776 135.110582 
L 435.628094 139.360073 
L 436.623411 139.360073 
L 437.618729 135.110582 
L 445.581271 135.110582 
L 446.576589 130.861091 
L 447.571906 135.110582 
L 448.567224 135.110582 
L 449.562542 130.861091 
L 450.55786 130.861091 
L 451.553177 135.110582 
L 454.53913 135.110582 
L 455.534448 130.861091 
L 474.445485 130.861091 
L 475.440803 126.611601 
L 476.43612 130.861091 
L 477.431438 126.611601 
L 499.328428 126.611601 
L 500.323746 122.36211 
L 501.319064 122.36211 
L 502.314381 126.611601 
L 503.309699 126.611601 
L 504.305017 122.36211 
L 505.300334 122.36211 
L 506.295652 126.611601 
L 507.29097 122.36211 
L 524.211371 122.36211 
L 525.206689 118.112619 
L 526.202007 126.611601 
L 527.197324 130.861091 
L 528.192642 130.861091 
L 529.18796 139.360073 
L 531.178595 147.859055 
L 532.173913 156.358037 
L 533.169231 156.358037 
L 534.164548 164.857019 
L 535.159866 164.857019 
L 536.155184 173.356 
L 538.145819 181.854982 
L 539.141137 181.854982 
L 540.136455 190.353964 
L 541.131773 190.353964 
L 551.08495 232.848873 
L 552.080268 232.848873 
L 557.056856 254.096328 
L 558.052174 254.096328 
L 559.047492 262.595309 
L 560.042809 262.595309 
L 561.038127 266.8448 
L 562.033445 266.8448 
L 567.010033 288.092255 
L 568.005351 288.092255 
L 571.986622 305.090219 
L 572.98194 305.090219 
L 574.972575 313.5892 
L 575.967893 313.5892 
L 576.963211 317.838691 
L 577.958528 317.838691 
L 580.944482 330.587164 
L 581.939799 330.587164 
L 582.935117 334.836655 
L 583.930435 334.836655 
L 585.92107 343.335637 
L 586.916388 343.335637 
L 588.907023 351.834618 
L 589.902341 351.834618 
L 590.897659 356.084109 
L 591.892977 356.084109 
L 592.888294 360.3336 
L 593.883612 360.3336 
L 594.87893 364.583091 
L 595.874247 364.583091 
L 596.869565 368.832582 
L 597.864883 368.832582 
L 598.860201 373.082073 
L 599.855518 373.082073 
L 600.850836 377.331564 
L 601.846154 377.331564 
L 603.836789 385.830546 
L 605.827425 385.830546 
L 606.822742 390.080037 
L 607.81806 390.080037 
L 608.813378 394.329528 
L 609.808696 394.329528 
L 611.799331 402.828509 
L 613.789967 402.828509 
L 614.785284 407.078 
L 615.780602 407.078 
L 616.77592 411.327491 
L 617.771237 411.327491 
L 618.766555 415.576982 
L 619.761873 415.576982 
L 620.757191 419.826473 
L 622.747826 419.826473 
L 623.743144 424.075964 
L 624.738462 424.075964 
L 625.733779 428.325455 
L 626.729097 428.325455 
L 627.724415 432.574946 
L 628.719732 432.574946 
L 629.71505 436.824437 
L 632.701003 436.824437 
L 634.691639 445.323418 
L 636.682274 445.323418 
L 637.677592 449.572909 
L 638.67291 449.572909 
L 639.668227 453.8224 
L 642.654181 453.8224 
L 643.649498 458.071891 
L 644.644816 458.071891 
L 645.640134 462.321382 
L 647.630769 462.321382 
L 648.626087 466.570873 
L 649.621405 466.570873 
L 650.616722 470.820364 
L 652.607358 470.820364 
L 653.602676 475.069855 
L 656.588629 475.069855 
L 657.583946 479.319346 
L 659.574582 479.319346 
L 660.5699 483.568837 
L 662.560535 483.568837 
L 663.555853 487.818327 
L 666.541806 487.818327 
L 667.537124 492.067818 
L 668.532441 492.067818 
L 669.527759 496.317309 
L 672.513712 496.317309 
L 673.50903 500.5668 
L 675.499666 500.5668 
L 676.494983 504.816291 
L 677.490301 504.816291 
L 678.485619 509.065782 
L 684.457525 509.065782 
L 685.452843 513.315273 
L 687.443478 513.315273 
L 688.438796 517.564764 
L 690.429431 517.564764 
L 691.424749 521.814255 
L 695.40602 521.814255 
L 696.401338 526.063746 
L 699.387291 526.063746 
L 700.382609 530.313236 
L 702.373244 530.313236 
L 703.368562 534.562727 
L 707.349833 534.562727 
L 708.345151 538.812218 
L 712.326421 538.812218 
L 713.321739 543.061709 
L 714.317057 538.812218 
L 715.312375 543.061709 
L 717.30301 543.061709 
L 718.298328 547.3112 
L 722.279599 547.3112 
L 723.274916 551.560691 
L 727.256187 551.560691 
L 728.251505 555.810182 
L 732.232776 555.810182 
L 733.228094 560.059673 
L 739.2 560.059673 
L 740.195318 564.309164 
L 744.176589 564.309164 
L 745.171906 568.558655 
L 749.153177 568.558655 
L 750.148495 572.808146 
L 751.143813 568.558655 
L 752.13913 572.808146 
L 755.125084 572.808146 
L 756.120401 577.057636 
L 766.073579 577.057636 
L 767.068896 581.307127 
L 774.03612 581.307127 
L 775.031438 585.556618 
L 780.008027 585.556618 
L 781.003344 589.806109 
L 789.961204 589.806109 
L 790.956522 594.0556 
L 800.909699 594.0556 
L 801.905017 598.305091 
L 809.867559 598.305091 
L 810.862876 602.554582 
L 811.858194 598.305091 
L 812.853512 602.554582 
L 823.802007 602.554582 
L 824.797324 606.804073 
L 833.755184 606.804073 
L 834.750502 611.053564 
L 850.675585 611.053564 
L 851.670903 615.303055 
L 867.595987 615.303055 
L 868.591304 619.552545 
L 869.586622 615.303055 
L 870.58194 619.552545 
L 886.507023 619.552545 
L 887.502341 623.802036 
L 908.404013 623.802036 
L 909.399331 628.051527 
L 910.394649 623.802036 
L 913.380602 623.802036 
L 914.37592 628.051527 
L 915.371237 628.051527 
L 916.366555 623.802036 
L 917.361873 628.051527 
L 937.268227 628.051527 
L 938.263545 632.301018 
L 939.258863 628.051527 
L 947.221405 628.051527 
L 948.216722 632.301018 
L 950.207358 632.301018 
L 951.202676 628.051527 
L 952.197993 632.301018 
L 979.071572 632.301018 
L 980.06689 636.550509 
L 981.062207 632.301018 
L 983.052843 632.301018 
L 984.048161 636.550509 
L 1035.804682 636.550509 
L 1036.8 640.8 
L 1036.8 640.8 
" style="fill:none;stroke:#0000ff;stroke-linecap:square;"/>
    <defs>
     <path d="M 0 3 
C 0.795609 3 1.55874 2.683901 2.12132 2.12132 
C 2.683901 1.55874 3 0.795609 3 0 
C 3 -0.795609 2.683901 -1.55874 2.12132 -2.12132 
C 1.55874 -2.683901 0.795609 -3 0 -3 
C -0.795609 -3 -1.55874 -2.683901 -2.12132 -2.12132 
C -2.683901 -1.55874 -3 -0.795609 -3 0 
C -3 0.795609 -2.683901 1.55874 -2.12132 2.12132 
C -1.55874 2.683901 -0.795609 3 0 3 
z
" id="mbda4a5568a" style="stroke:#0000ff;"/>
    </defs>
    <g clip-path="url(#pdd62a0d932)">
     <use style="fill:#0000ff;stroke:#0000ff;" x="144" xlink:href="#mbda4a5568a" y="640.8"/>
     <use style="fill:#0000ff;stroke:#0000ff;" x="163.906355" xlink:href="#mbda4a5568a" y="538.812218"/>
     <use style="fill:#0000ff;stroke:#0000ff;" x="183.812709" xlink:href="#mbda4a5568a" y="458.071891"/>
     <use style="fill:#0000ff;stroke:#0000ff;" x="203.719064" xlink:href="#mbda4a5568a" y="390.080037"/>
     <use style="fill:#0000ff;stroke:#0000ff;" x="223.625418" xlink:href="#mbda4a5568a" y="339.086146"/>
     <use style="fill:#0000ff;stroke:#0000ff;" x="243.531773" xlink:href="#mbda4a5568a" y="296.591237"/>
     <use style="fill:#0000ff;stroke:#0000ff;" x="263.438127" xlink:href="#mbda4a5568a" y="262.595309"/>
     <use style="fill:#0000ff;stroke:#0000ff;" x="283.344482" xlink:href="#mbda4a5568a" y="232.848873"/>
     <use style="fill:#0000ff;stroke:#0000ff;" x="303.250836" xlink:href="#mbda4a5568a" y="211.601419"/>
     <use style="fill:#0000ff;stroke:#0000ff;" x="323.157191" xlink:href="#mbda4a5568a" y="194.603455"/>
     <use style="fill:#0000ff;stroke:#0000ff;" x="343.063545" xlink:href="#mbda4a5568a" y="177.605491"/>
     <use style="fill:#0000ff;stroke:#0000ff;" x="362.9699" xlink:href="#mbda4a5568a" y="164.857019"/>
     <use style="fill:#0000ff;stroke:#0000ff;" x="382.876254" xlink:href="#mbda4a5568a" y="156.358037"/>
     <use style="fill:#0000ff;stroke:#0000ff;" x="402.782609" xlink:href="#mbda4a5568a" y="147.859055"/>
     <use style="fill:#0000ff;stroke:#0000ff;" x="422.688963" xlink:href="#mbda4a5568a" y="139.360073"/>
     <use style="fill:#0000ff;stroke:#0000ff;" x="442.595318" xlink:href="#mbda4a5568a" y="135.110582"/>
     <use style="fill:#0000ff;stroke:#0000ff;" x="462.501672" xlink:href="#mbda4a5568a" y="130.861091"/>
     <use style="fill:#0000ff;stroke:#0000ff;" x="482.408027" xlink:href="#mbda4a5568a" y="126.611601"/>
     <use style="fill:#0000ff;stroke:#0000ff;" x="502.314381" xlink:href="#mbda4a5568a" y="126.611601"/>
     <use style="fill:#0000ff;stroke:#0000ff;" x="522.220736" xlink:href="#mbda4a5568a" y="122.36211"/>
     <use style="fill:#0000ff;stroke:#0000ff;" x="542.12709" xlink:href="#mbda4a5568a" y="194.603455"/>
     <use style="fill:#0000ff;stroke:#0000ff;" x="562.033445" xlink:href="#mbda4a5568a" y="266.8448"/>
     <use style="fill:#0000ff;stroke:#0000ff;" x="581.939799" xlink:href="#mbda4a5568a" y="330.587164"/>
     <use style="fill:#0000ff;stroke:#0000ff;" x="601.846154" xlink:href="#mbda4a5568a" y="377.331564"/>
     <use style="fill:#0000ff;stroke:#0000ff;" x="621.752508" xlink:href="#mbda4a5568a" y="419.826473"/>
     <use style="fill:#0000ff;stroke:#0000ff;" x="641.658863" xlink:href="#mbda4a5568a" y="453.8224"/>
     <use style="fill:#0000ff;stroke:#0000ff;" x="661.565217" xlink:href="#mbda4a5568a" y="483.568837"/>
     <use style="fill:#0000ff;stroke:#0000ff;" x="681.471572" xlink:href="#mbda4a5568a" y="509.065782"/>
     <use style="fill:#0000ff;stroke:#0000ff;" x="701.377926" xlink:href="#mbda4a5568a" y="530.313236"/>
     <use style="fill:#0000ff;stroke:#0000ff;" x="721.284281" xlink:href="#mbda4a5568a" y="547.3112"/>
     <use style="fill:#0000ff;stroke:#0000ff;" x="741.190635" xlink:href="#mbda4a5568a" y="564.309164"/>
     <use style="fill:#0000ff;stroke:#0000ff;" x="761.09699" xlink:href="#mbda4a5568a" y="577.057636"/>
     <use style="fill:#0000ff;stroke:#0000ff;" x="781.003344" xlink:href="#mbda4a5568a" y="589.806109"/>
     <use style="fill:#0000ff;stroke:#0000ff;" x="800.909699" xlink:href="#mbda4a5568a" y="594.0556"/>
     <use style="fill:#0000ff;stroke:#0000ff;" x="820.816054" xlink:href="#mbda4a5568a" y="602.554582"/>
     <use style="fill:#0000ff;stroke:#0000ff;" x="840.722408" xlink:href="#mbda4a5568a" y="611.053564"/>
     <use style="fill:#0000ff;stroke:#0000ff;" x="860.628763" xlink:href="#mbda4a5568a" y="615.303055"/>
     <use style="fill:#0000ff;stroke:#0000ff;" x="880.535117" xlink:href="#mbda4a5568a" y="619.552545"/>
     <use style="fill:#0000ff;stroke:#0000ff;" x="900.441472" xlink:href="#mbda4a5568a" y="623.802036"/>
     <use style="fill:#0000ff;stroke:#0000ff;" x="920.347826" xlink:href="#mbda4a5568a" y="628.051527"/>
     <use style="fill:#0000ff;stroke:#0000ff;" x="940.254181" xlink:href="#mbda4a5568a" y="628.051527"/>
     <use style="fill:#0000ff;stroke:#0000ff;" x="960.160535" xlink:href="#mbda4a5568a" y="632.301018"/>
     <use style="fill:#0000ff;stroke:#0000ff;" x="980.06689" xlink:href="#mbda4a5568a" y="636.550509"/>
     <use style="fill:#0000ff;stroke:#0000ff;" x="999.973244" xlink:href="#mbda4a5568a" y="636.550509"/>
     <use style="fill:#0000ff;stroke:#0000ff;" x="1019.879599" xlink:href="#mbda4a5568a" y="636.550509"/>
    </g>
   </g>
   <g id="patch_3">
    <path d="M 144 640.8 
L 144 86.4 
" style="fill:none;stroke:#000000;stroke-linecap:square;stroke-linejoin:miter;stroke-width:0.8;"/>
   </g>
   <g id="patch_4">
    <path d="M 1036.8 640.8 
L 1036.8 86.4 
" style="fill:none;stroke:#000000;stroke-linecap:square;stroke-linejoin:miter;stroke-width:0.8;"/>
   </g>
   <g id="patch_5">
    <path d="M 144 640.8 
L 1036.8 640.8 
" style="fill:none;stroke:#000000;stroke-linecap:square;stroke-linejoin:miter;stroke-width:0.8;"/>
   </g>
   <g id="patch_6">
    <path d="M 144 86.4 
L 1036.8 86.4 
" style="fill:none;stroke:#000000;stroke-linecap:square;stroke-linejoin:miter;stroke-width:0.8;"/>
   </g>
   <g id="text_15">
    <!-- Время зарядки:  4.213 -->
    <g transform="translate(777.384007 325.798559)scale(0.2 -0.2)">
     <defs>
      <path d="M 2206 1888 
Q 2594 1813 2809 1584 
Q 3025 1356 3025 1019 
Q 3025 478 2622 193 
Q 2219 -91 1475 -91 
Q 1225 -91 961 -47 
Q 697 -3 416 84 
L 416 619 
Q 638 503 903 445 
Q 1169 388 1459 388 
Q 1931 388 2195 563 
Q 2459 738 2459 1019 
Q 2459 1294 2225 1461 
Q 1991 1628 1563 1628 
L 1100 1628 
L 1100 2103 
L 1584 2103 
Q 1947 2103 2158 2242 
Q 2369 2381 2369 2600 
Q 2369 2800 2151 2944 
Q 1934 3088 1563 3088 
Q 1341 3088 1089 3047 
Q 838 3006 534 2916 
L 534 3438 
Q 841 3513 1106 3550 
Q 1372 3588 1609 3588 
Q 2222 3588 2576 3342 
Q 2931 3097 2931 2656 
Q 2931 2366 2743 2164 
Q 2556 1963 2206 1888 
z
" id="DejaVuSans-437" transform="scale(0.015625)"/>
      <path d="M 1384 459 
L 3053 459 
L 3053 3041 
L 1844 3041 
L 1844 2603 
Q 1844 1316 1475 628 
L 1384 459 
z
M 550 459 
Q 834 584 959 850 
Q 1266 1509 1266 2838 
L 1266 3500 
L 3631 3500 
L 3631 459 
L 4091 459 
L 4091 -884 
L 3631 -884 
L 3631 0 
L 794 0 
L 794 -884 
L 334 -884 
L 334 459 
L 550 459 
z
" id="DejaVuSans-434" transform="scale(0.015625)"/>
      <path d="M 581 3500 
L 1153 3500 
L 1153 1856 
L 2775 3500 
L 3481 3500 
L 2144 2147 
L 3653 0 
L 3009 0 
L 1769 1766 
L 1153 1141 
L 1153 0 
L 581 0 
L 581 3500 
z
" id="DejaVuSans-43a" transform="scale(0.015625)"/>
      <path d="M 750 794 
L 1409 794 
L 1409 0 
L 750 0 
L 750 794 
z
M 750 3309 
L 1409 3309 
L 1409 2516 
L 750 2516 
L 750 3309 
z
" id="DejaVuSans-3a" transform="scale(0.015625)"/>
     </defs>
     <use xlink:href="#DejaVuSans-412"/>
     <use x="68.603516" xlink:href="#DejaVuSans-440"/>
     <use x="132.080078" xlink:href="#DejaVuSans-435"/>
     <use x="193.603516" xlink:href="#DejaVuSans-43c"/>
     <use x="269.042969" xlink:href="#DejaVuSans-44f"/>
     <use x="329.199219" xlink:href="#DejaVuSans-20"/>
     <use x="360.986328" xlink:href="#DejaVuSans-437"/>
     <use x="414.160156" xlink:href="#DejaVuSans-430"/>
     <use x="475.439453" xlink:href="#DejaVuSans-440"/>
     <use x="538.916016" xlink:href="#DejaVuSans-44f"/>
     <use x="599.072266" xlink:href="#DejaVuSans-434"/>
     <use x="668.212891" xlink:href="#DejaVuSans-43a"/>
     <use x="728.613281" xlink:href="#DejaVuSans-438"/>
     <use x="793.603516" xlink:href="#DejaVuSans-3a"/>
     <use x="827.294922" xlink:href="#DejaVuSans-20"/>
     <use x="859.082031" xlink:href="#DejaVuSans-20"/>
     <use x="890.869141" xlink:href="#DejaVuSans-34"/>
     <use x="954.492188" xlink:href="#DejaVuSans-2e"/>
     <use x="986.279297" xlink:href="#DejaVuSans-32"/>
     <use x="1049.902344" xlink:href="#DejaVuSans-31"/>
     <use x="1113.525391" xlink:href="#DejaVuSans-33"/>
    </g>
   </g>
   <g id="text_16">
    <!-- Время разрядки: 5.654 -->
    <g transform="translate(777.384007 405.080105)scale(0.2 -0.2)">
     <use xlink:href="#DejaVuSans-412"/>
     <use x="68.603516" xlink:href="#DejaVuSans-440"/>
     <use x="132.080078" xlink:href="#DejaVuSans-435"/>
     <use x="193.603516" xlink:href="#DejaVuSans-43c"/>
     <use x="269.042969" xlink:href="#DejaVuSans-44f"/>
     <use x="329.199219" xlink:href="#DejaVuSans-20"/>
     <use x="360.986328" xlink:href="#DejaVuSans-440"/>
     <use x="424.462891" xlink:href="#DejaVuSans-430"/>
     <use x="485.742188" xlink:href="#DejaVuSans-437"/>
     <use x="538.916016" xlink:href="#DejaVuSans-440"/>
     <use x="602.392578" xlink:href="#DejaVuSans-44f"/>
     <use x="662.548828" xlink:href="#DejaVuSans-434"/>
     <use x="731.689453" xlink:href="#DejaVuSans-43a"/>
     <use x="792.089844" xlink:href="#DejaVuSans-438"/>
     <use x="857.080078" xlink:href="#DejaVuSans-3a"/>
     <use x="890.771484" xlink:href="#DejaVuSans-20"/>
     <use x="922.558594" xlink:href="#DejaVuSans-35"/>
     <use x="986.181641" xlink:href="#DejaVuSans-2e"/>
     <use x="1017.96875" xlink:href="#DejaVuSans-36"/>
     <use x="1081.591797" xlink:href="#DejaVuSans-35"/>
     <use x="1145.214844" xlink:href="#DejaVuSans-34"/>
    </g>
   </g>
   <g id="text_17">
    <!-- Процесс заряда и разряда конденсатора в RC-цепочке -->
    <g transform="translate(299.839062 80.4)scale(0.2 -0.2)">
     <defs>
      <path d="M 4184 4666 
L 4184 0 
L 3553 0 
L 3553 4134 
L 1259 4134 
L 1259 0 
L 628 0 
L 628 4666 
L 4184 4666 
z
" id="DejaVuSans-41f" transform="scale(0.015625)"/>
      <path d="M 1959 3097 
Q 1497 3097 1228 2736 
Q 959 2375 959 1747 
Q 959 1119 1226 758 
Q 1494 397 1959 397 
Q 2419 397 2687 759 
Q 2956 1122 2956 1747 
Q 2956 2369 2687 2733 
Q 2419 3097 1959 3097 
z
M 1959 3584 
Q 2709 3584 3137 3096 
Q 3566 2609 3566 1747 
Q 3566 888 3137 398 
Q 2709 -91 1959 -91 
Q 1206 -91 779 398 
Q 353 888 353 1747 
Q 353 2609 779 3096 
Q 1206 3584 1959 3584 
z
" id="DejaVuSans-43e" transform="scale(0.015625)"/>
      <path d="M 3603 0 
L 581 0 
L 581 3500 
L 1159 3500 
L 1159 459 
L 3025 459 
L 3025 3500 
L 3603 3500 
L 3603 459 
L 4063 459 
L 4063 -884 
L 3603 -884 
L 3603 0 
z
" id="DejaVuSans-446" transform="scale(0.015625)"/>
      <path d="M 188 3500 
L 3541 3500 
L 3541 3041 
L 2147 3041 
L 2147 0 
L 1581 0 
L 1581 3041 
L 188 3041 
L 188 3500 
z
" id="DejaVuSans-442" transform="scale(0.015625)"/>
      <path d="M 1156 1613 
L 1156 459 
L 1975 459 
Q 2369 459 2575 607 
Q 2781 756 2781 1038 
Q 2781 1319 2575 1466 
Q 2369 1613 1975 1613 
L 1156 1613 
z
M 1156 3041 
L 1156 2072 
L 1913 2072 
Q 2238 2072 2444 2201 
Q 2650 2331 2650 2563 
Q 2650 2794 2444 2917 
Q 2238 3041 1913 3041 
L 1156 3041 
z
M 581 3500 
L 1950 3500 
Q 2566 3500 2897 3275 
Q 3228 3050 3228 2634 
Q 3228 2313 3059 2123 
Q 2891 1934 2559 1888 
Q 2956 1813 3175 1575 
Q 3394 1338 3394 981 
Q 3394 513 3033 256 
Q 2672 0 2003 0 
L 581 0 
L 581 3500 
z
" id="DejaVuSans-432" transform="scale(0.015625)"/>
      <path d="M 2841 2188 
Q 3044 2119 3236 1894 
Q 3428 1669 3622 1275 
L 4263 0 
L 3584 0 
L 2988 1197 
Q 2756 1666 2539 1819 
Q 2322 1972 1947 1972 
L 1259 1972 
L 1259 0 
L 628 0 
L 628 4666 
L 2053 4666 
Q 2853 4666 3247 4331 
Q 3641 3997 3641 3322 
Q 3641 2881 3436 2590 
Q 3231 2300 2841 2188 
z
M 1259 4147 
L 1259 2491 
L 2053 2491 
Q 2509 2491 2742 2702 
Q 2975 2913 2975 3322 
Q 2975 3731 2742 3939 
Q 2509 4147 2053 4147 
L 1259 4147 
z
" id="DejaVuSans-52" transform="scale(0.015625)"/>
      <path d="M 4122 4306 
L 4122 3641 
Q 3803 3938 3442 4084 
Q 3081 4231 2675 4231 
Q 1875 4231 1450 3742 
Q 1025 3253 1025 2328 
Q 1025 1406 1450 917 
Q 1875 428 2675 428 
Q 3081 428 3442 575 
Q 3803 722 4122 1019 
L 4122 359 
Q 3791 134 3420 21 
Q 3050 -91 2638 -91 
Q 1578 -91 968 557 
Q 359 1206 359 2328 
Q 359 3453 968 4101 
Q 1578 4750 2638 4750 
Q 3056 4750 3426 4639 
Q 3797 4528 4122 4306 
z
" id="DejaVuSans-43" transform="scale(0.015625)"/>
      <path d="M 313 2009 
L 1997 2009 
L 1997 1497 
L 313 1497 
L 313 2009 
z
" id="DejaVuSans-2d" transform="scale(0.015625)"/>
      <path d="M 2625 0 
L 2625 1472 
L 1553 1472 
Q 1075 1472 756 1769 
Q 469 2038 469 2613 
L 469 3500 
L 1044 3500 
L 1044 2666 
Q 1044 2300 1206 2116 
Q 1372 1931 1697 1931 
L 2625 1931 
L 2625 3500 
L 3200 3500 
L 3200 0 
L 2625 0 
z
" id="DejaVuSans-447" transform="scale(0.015625)"/>
     </defs>
     <use xlink:href="#DejaVuSans-41f"/>
     <use x="75.195312" xlink:href="#DejaVuSans-440"/>
     <use x="138.671875" xlink:href="#DejaVuSans-43e"/>
     <use x="199.853516" xlink:href="#DejaVuSans-446"/>
     <use x="267.919922" xlink:href="#DejaVuSans-435"/>
     <use x="329.443359" xlink:href="#DejaVuSans-441"/>
     <use x="384.423828" xlink:href="#DejaVuSans-441"/>
     <use x="439.404297" xlink:href="#DejaVuSans-20"/>
     <use x="471.191406" xlink:href="#DejaVuSans-437"/>
     <use x="524.365234" xlink:href="#DejaVuSans-430"/>
     <use x="585.644531" xlink:href="#DejaVuSans-440"/>
     <use x="649.121094" xlink:href="#DejaVuSans-44f"/>
     <use x="709.277344" xlink:href="#DejaVuSans-434"/>
     <use x="778.417969" xlink:href="#DejaVuSans-430"/>
     <use x="839.697266" xlink:href="#DejaVuSans-20"/>
     <use x="871.484375" xlink:href="#DejaVuSans-438"/>
     <use x="936.474609" xlink:href="#DejaVuSans-20"/>
     <use x="968.261719" xlink:href="#DejaVuSans-440"/>
     <use x="1031.738281" xlink:href="#DejaVuSans-430"/>
     <use x="1093.017578" xlink:href="#DejaVuSans-437"/>
     <use x="1146.191406" xlink:href="#DejaVuSans-440"/>
     <use x="1209.667969" xlink:href="#DejaVuSans-44f"/>
     <use x="1269.824219" xlink:href="#DejaVuSans-434"/>
     <use x="1338.964844" xlink:href="#DejaVuSans-430"/>
     <use x="1400.244141" xlink:href="#DejaVuSans-20"/>
     <use x="1432.03125" xlink:href="#DejaVuSans-43a"/>
     <use x="1492.431641" xlink:href="#DejaVuSans-43e"/>
     <use x="1553.613281" xlink:href="#DejaVuSans-43d"/>
     <use x="1618.994141" xlink:href="#DejaVuSans-434"/>
     <use x="1688.134766" xlink:href="#DejaVuSans-435"/>
     <use x="1749.658203" xlink:href="#DejaVuSans-43d"/>
     <use x="1815.039062" xlink:href="#DejaVuSans-441"/>
     <use x="1870.019531" xlink:href="#DejaVuSans-430"/>
     <use x="1931.298828" xlink:href="#DejaVuSans-442"/>
     <use x="1989.550781" xlink:href="#DejaVuSans-43e"/>
     <use x="2050.732422" xlink:href="#DejaVuSans-440"/>
     <use x="2114.208984" xlink:href="#DejaVuSans-430"/>
     <use x="2175.488281" xlink:href="#DejaVuSans-20"/>
     <use x="2207.275391" xlink:href="#DejaVuSans-432"/>
     <use x="2266.210938" xlink:href="#DejaVuSans-20"/>
     <use x="2297.998047" xlink:href="#DejaVuSans-52"/>
     <use x="2362.480469" xlink:href="#DejaVuSans-43"/>
     <use x="2432.304688" xlink:href="#DejaVuSans-2d"/>
     <use x="2468.388672" xlink:href="#DejaVuSans-446"/>
     <use x="2536.455078" xlink:href="#DejaVuSans-435"/>
     <use x="2597.978516" xlink:href="#DejaVuSans-43f"/>
     <use x="2663.359375" xlink:href="#DejaVuSans-43e"/>
     <use x="2724.541016" xlink:href="#DejaVuSans-447"/>
     <use x="2783.623047" xlink:href="#DejaVuSans-43a"/>
     <use x="2844.023438" xlink:href="#DejaVuSans-435"/>
    </g>
   </g>
   <g id="legend_1">
    <g id="patch_7">
     <path d="M 916.4 131.75625 
L 1022.8 131.75625 
Q 1026.8 131.75625 1026.8 127.75625 
L 1026.8 100.4 
Q 1026.8 96.4 1022.8 96.4 
L 916.4 96.4 
Q 912.4 96.4 912.4 100.4 
L 912.4 127.75625 
Q 912.4 131.75625 916.4 131.75625 
z
" style="fill:#ffffff;opacity:0.8;stroke:#cccccc;stroke-linejoin:miter;"/>
    </g>
    <g id="line2d_112">
     <path d="M 920.4 112.596875 
L 960.4 112.596875 
" style="fill:none;stroke:#0000ff;stroke-linecap:square;"/>
    </g>
    <g id="line2d_113">
     <g>
      <use style="fill:#0000ff;stroke:#0000ff;" x="940.4" xlink:href="#mbda4a5568a" y="112.596875"/>
     </g>
    </g>
    <g id="text_18">
     <!-- $U(\tau)$ -->
     <g transform="translate(976.4 119.596875)scale(0.2 -0.2)">
      <defs>
       <path d="M 1984 4856 
Q 1566 4138 1362 3434 
Q 1159 2731 1159 2009 
Q 1159 1288 1364 580 
Q 1569 -128 1984 -844 
L 1484 -844 
Q 1016 -109 783 600 
Q 550 1309 550 2009 
Q 550 2706 781 3412 
Q 1013 4119 1484 4856 
L 1984 4856 
z
" id="DejaVuSans-28" transform="scale(0.015625)"/>
       <path d="M 513 4856 
L 1013 4856 
Q 1481 4119 1714 3412 
Q 1947 2706 1947 2009 
Q 1947 1309 1714 600 
Q 1481 -109 1013 -844 
L 513 -844 
Q 928 -128 1133 580 
Q 1338 1288 1338 2009 
Q 1338 2731 1133 3434 
Q 928 4138 513 4856 
z
" id="DejaVuSans-29" transform="scale(0.015625)"/>
      </defs>
      <use transform="translate(0 0.125)" xlink:href="#DejaVuSans-Oblique-55"/>
      <use transform="translate(73.193359 0.125)" xlink:href="#DejaVuSans-28"/>
      <use transform="translate(112.207031 0.125)" xlink:href="#DejaVuSans-Oblique-3c4"/>
      <use transform="translate(172.412109 0.125)" xlink:href="#DejaVuSans-29"/>
     </g>
    </g>
   </g>
  </g>
 </g>
 <defs>
  <clipPath id="pdd62a0d932">
   <rect height="554.4" width="892.8" x="144" y="86.4"/>
  </clipPath>
 </defs>
</svg>
